<svg width="20" height="26" viewBox="0 0 20 26" fill="none" xmlns="http://www.w3.org/2000/svg">
<path d="M10 14.125C11.864 14.125 13.375 12.614 13.375 10.75C13.375 8.88604 11.864 7.375 10 7.375C8.13604 7.375 6.625 8.88604 6.625 10.75C6.625 12.614 8.13604 14.125 10 14.125Z" stroke="#5B5B5B" stroke-width="2" stroke-linecap="round" stroke-linejoin="round"/>
<path d="M10 1.75C7.61305 1.75 5.32387 2.69821 3.63604 4.38604C1.94821 6.07387 1 8.36305 1 10.75C1 12.8785 1.45225 14.2712 2.6875 15.8125L10 24.25L17.3125 15.8125C18.5478 14.2712 19 12.8785 19 10.75C19 8.36305 18.0518 6.07387 16.364 4.38604C14.6761 2.69821 12.3869 1.75 10 1.75V1.75Z" stroke="#5B5B5B" stroke-width="2" stroke-linecap="round" stroke-linejoin="round"/>
</svg>
