<svg xmlns="http://www.w3.org/2000/svg" width="24.544" height="35.769" viewBox="0 0 24.544 35.769">
  <g id="bookmark" transform="translate(-80.333)">
    <g id="Group_281" data-name="Group 281" transform="translate(80.333)">
      <path id="Path_382" data-name="Path 382" d="M103.829,0H81.381a1.048,1.048,0,0,0-1.048,1.048V34.721a1.048,1.048,0,0,0,1.789.741L92.605,24.978l10.483,10.483a1.048,1.048,0,0,0,1.789-.741V1.048A1.048,1.048,0,0,0,103.829,0ZM92.605,22.448a1.048,1.048,0,0,0-.741.307l-9.436,9.435V2.1h20.353V32.191l-9.435-9.435A1.048,1.048,0,0,0,92.605,22.448Z" transform="translate(-80.333)" fill="#141414"/>
    </g>
  </g>
</svg>
