<svg xmlns="http://www.w3.org/2000/svg" width="29.156" height="37.11" viewBox="0 0 29.156 37.11">
  <g id="clipboard_2_" data-name="clipboard(2)" transform="translate(-47.037 0)">
    <g id="Group_301" data-name="Group 301" transform="translate(47.037 0)">
      <g id="Group_300" data-name="Group 300" transform="translate(0 0)">
        <path id="Path_392" data-name="Path 392" d="M72.482,4.862H69.125V3.36c0-.486-.53-.707-1.016-.707H65.5A3.952,3.952,0,0,0,61.571,0a4.02,4.02,0,0,0-3.932,2.651H55.077c-.486,0-.972.221-.972.707v1.5H50.748A3.755,3.755,0,0,0,47.037,8.44V33.753a3.554,3.554,0,0,0,3.711,3.357H72.482a3.554,3.554,0,0,0,3.711-3.357V8.441A3.755,3.755,0,0,0,72.482,4.862Zm-16.61-.442H58.3a.972.972,0,0,0,.839-.8,2.562,2.562,0,0,1,2.43-1.988,2.518,2.518,0,0,1,2.385,1.988.972.972,0,0,0,.883.8h2.518V7.955H55.872ZM74.426,33.753a1.792,1.792,0,0,1-1.944,1.59H50.748a1.792,1.792,0,0,1-1.944-1.59V8.441a1.988,1.988,0,0,1,1.944-1.811h3.357V8.882a.928.928,0,0,0,.972.839H68.109a.972.972,0,0,0,1.016-.839V6.629h3.357A1.988,1.988,0,0,1,74.426,8.44V33.753Z" transform="translate(-47.037 0)"/>
        <path id="Path_393" data-name="Path 393" d="M106.131,230.587a.884.884,0,0,0-1.237-.044l-2.827,2.695L100.874,232a.884.884,0,0,0-1.237-.044.928.928,0,0,0,0,1.281l1.811,1.855a.8.8,0,0,0,.618.265.883.883,0,0,0,.618-.265l3.446-3.269a.839.839,0,0,0,.051-1.186Q106.158,230.611,106.131,230.587Z" transform="translate(-94.955 -210.838)"/>
        <path id="Path_394" data-name="Path 394" d="M209.592,256.034h-10.16a.884.884,0,0,0,0,1.767h10.16a.884.884,0,1,0,0-1.767Z" transform="translate(-185.737 -234.385)"/>
        <path id="Path_395" data-name="Path 395" d="M106.131,146.995a.883.883,0,0,0-1.237-.044l-2.827,2.695-1.193-1.237a.883.883,0,0,0-1.237-.044.928.928,0,0,0,0,1.281l1.811,1.855a.8.8,0,0,0,.618.265.883.883,0,0,0,.618-.265l3.446-3.269a.839.839,0,0,0,.051-1.186Q106.158,147.019,106.131,146.995Z" transform="translate(-94.955 -134.314)"/>
        <path id="Path_396" data-name="Path 396" d="M209.592,172.442h-10.16a.883.883,0,1,0,0,1.767h10.16a.883.883,0,1,0,0-1.767Z" transform="translate(-185.737 -157.861)"/>
        <path id="Path_397" data-name="Path 397" d="M106.131,314.178a.884.884,0,0,0-1.237-.044l-2.827,2.695-1.193-1.237a.884.884,0,0,0-1.237-.044.928.928,0,0,0,0,1.281l1.811,1.855a.8.8,0,0,0,.618.265.883.883,0,0,0,.618-.265l3.446-3.269a.839.839,0,0,0,.051-1.186Q106.158,314.2,106.131,314.178Z" transform="translate(-94.955 -287.361)"/>
        <path id="Path_398" data-name="Path 398" d="M209.592,339.626h-10.16a.884.884,0,0,0,0,1.767h10.16a.884.884,0,1,0,0-1.767Z" transform="translate(-185.737 -310.909)"/>
      </g>
    </g>
  </g>
</svg>
