<svg xmlns="http://www.w3.org/2000/svg" width="40.025" height="39.824" viewBox="0 0 40.025 39.824">
  <g id="edit_1_" data-name="edit (1)" transform="translate(0 -0.261)">
    <path id="Path_61" data-name="Path 61" d="M36.942,60.285a1,1,0,0,0-1,1v8.851a2.994,2.994,0,0,1-2.991,2.991H4.984a2.994,2.994,0,0,1-2.991-2.991V44.156a2.994,2.994,0,0,1,2.991-2.991h8.851a1,1,0,1,0,0-1.994H4.984A4.99,4.99,0,0,0,0,44.156V70.133a4.99,4.99,0,0,0,4.984,4.984h27.97a4.99,4.99,0,0,0,4.984-4.984V61.282a1,1,0,0,0-1-1Zm0,0" transform="translate(0 -35.033)" fill="#121212"/>
    <path id="Path_62" data-name="Path 62" d="M134.949,1.575a4.486,4.486,0,0,0-6.344,0L110.821,19.359a1,1,0,0,0-.256.439l-2.339,8.443a1,1,0,0,0,1.227,1.227l8.443-2.339a1,1,0,0,0,.439-.256L136.119,9.088a4.491,4.491,0,0,0,0-6.344ZM112.993,20.007,127.548,5.451l4.694,4.694L117.687,24.7Zm-.938,1.882,3.75,3.751-5.187,1.437Zm22.654-14.21-1.057,1.057-4.695-4.694,1.058-1.057a2.492,2.492,0,0,1,3.524,0l1.17,1.17A2.5,2.5,0,0,1,134.709,7.679Zm0,0" transform="translate(-97.405)" fill="#121212"/>
  </g>
</svg>
