<svg xmlns="http://www.w3.org/2000/svg" width="39.825" height="39.825" viewBox="0 0 39.825 39.825">
  <g id="floppy-disk" transform="translate(0.001 -0.003)">
    <path id="Path_330" data-name="Path 330" d="M39.818,9.845a1.169,1.169,0,0,0-.258-.624c-.058-.071.536.528-8.868-8.876A1.176,1.176,0,0,0,29.867,0H3.5A3.5,3.5,0,0,0,0,3.5V36.328a3.5,3.5,0,0,0,3.5,3.5H36.324a3.5,3.5,0,0,0,3.5-3.5c0-28.327,0-26.393-.006-26.482ZM26.834,2.336V9.959a1.168,1.168,0,0,1-1.167,1.167H24.19V2.336Zm-4.978,0v8.789H11.044A1.168,1.168,0,0,1,9.878,9.959V2.336Zm4.978,22.635H9.878V23.493a1.168,1.168,0,0,1,1.167-1.167H25.667a1.168,1.168,0,0,1,1.167,1.167ZM9.878,37.494V27.3H26.834v10.19ZM37.49,36.328a1.168,1.168,0,0,1-1.167,1.167H29.168v-14a3.5,3.5,0,0,0-3.5-3.5H11.044a3.5,3.5,0,0,0-3.5,3.5v14H3.5a1.168,1.168,0,0,1-1.167-1.167V3.5A1.168,1.168,0,0,1,3.5,2.336H7.544V9.959a3.5,3.5,0,0,0,3.5,3.5H25.667a3.5,3.5,0,0,0,3.5-3.5V2.336h.217l8.106,8.106Z"/>
  </g>
</svg>
