<svg xmlns="http://www.w3.org/2000/svg" width="39.791" height="39.791" viewBox="0 0 39.791 39.791">
  <g id="graphic-design" transform="translate(-8 -8)">
    <path id="Path_614" data-name="Path 614" d="M45.545,64h-35.3A2.249,2.249,0,0,0,8,66.246V90.634a2.249,2.249,0,0,0,2.246,2.246H22.552l-.916,3.209H18.91a.642.642,0,0,0-.642.642v1.925a.642.642,0,0,0,.642.642h17.97a.642.642,0,0,0,.642-.642V96.731a.642.642,0,0,0-.642-.642H34.155l-.916-3.209H45.545a2.249,2.249,0,0,0,2.246-2.246V66.246A2.249,2.249,0,0,0,45.545,64ZM36.239,97.373v.642H19.552v-.642ZM22.971,96.09l.916-3.209H31.9l.916,3.209Zm23.537-5.455a.963.963,0,0,1-.963.963h-35.3a.963.963,0,0,1-.963-.963v-1.6H46.507Zm0-2.888H9.284v-21.5a.963.963,0,0,1,.963-.963h35.3a.963.963,0,0,1,.963.963Z" transform="translate(0 -51.507)" fill="#141414"/>
    <path id="Path_615" data-name="Path 615" d="M40.642,115.851h2.567a.642.642,0,0,0,.642-.642v-2.567a.642.642,0,0,0-.642-.642H40.642a.642.642,0,0,0-.642.642v2.567A.642.642,0,0,0,40.642,115.851Zm.642-2.567h1.284v1.284H41.284Z" transform="translate(-29.433 -95.657)" fill="#141414"/>
    <path id="Path_616" data-name="Path 616" d="M40.642,171.851h2.567a.642.642,0,0,0,.642-.642v-2.567a.642.642,0,0,0-.642-.642H40.642a.642.642,0,0,0-.642.642v2.567A.642.642,0,0,0,40.642,171.851Zm.642-2.567h1.284v1.284H41.284Z" transform="translate(-29.433 -147.164)" fill="#141414"/>
    <path id="Path_617" data-name="Path 617" d="M40.642,227.851h2.567a.642.642,0,0,0,.642-.642v-2.567a.642.642,0,0,0-.642-.642H40.642a.642.642,0,0,0-.642.642v2.567A.642.642,0,0,0,40.642,227.851Zm.642-2.567h1.284v1.284H41.284Z" transform="translate(-29.433 -198.672)" fill="#141414"/>
    <path id="Path_618" data-name="Path 618" d="M40.642,283.851h2.567a.642.642,0,0,0,.642-.642v-2.567a.642.642,0,0,0-.642-.642H40.642a.642.642,0,0,0-.642.642v2.567A.642.642,0,0,0,40.642,283.851Zm.642-2.567h1.284v1.284H41.284Z" transform="translate(-29.433 -250.179)" fill="#141414"/>
    <path id="Path_619" data-name="Path 619" d="M424.642,115.851h2.567a.642.642,0,0,0,.642-.642v-2.567a.642.642,0,0,0-.642-.642h-2.567a.642.642,0,0,0-.642.642v2.567A.642.642,0,0,0,424.642,115.851Zm.642-2.567h1.284v1.284h-1.284Z" transform="translate(-382.627 -95.657)" fill="#141414"/>
    <path id="Path_620" data-name="Path 620" d="M424.642,171.851h2.567a.642.642,0,0,0,.642-.642v-2.567a.642.642,0,0,0-.642-.642h-2.567a.642.642,0,0,0-.642.642v2.567A.642.642,0,0,0,424.642,171.851Zm.642-2.567h1.284v1.284h-1.284Z" transform="translate(-382.627 -147.164)" fill="#141414"/>
    <path id="Path_621" data-name="Path 621" d="M424.642,227.851h2.567a.642.642,0,0,0,.642-.642v-2.567a.642.642,0,0,0-.642-.642h-2.567a.642.642,0,0,0-.642.642v2.567A.642.642,0,0,0,424.642,227.851Zm.642-2.567h1.284v1.284h-1.284Z" transform="translate(-382.627 -198.672)" fill="#141414"/>
    <path id="Path_622" data-name="Path 622" d="M424.642,283.851h2.567a.642.642,0,0,0,.642-.642v-2.567a.642.642,0,0,0-.642-.642h-2.567a.642.642,0,0,0-.642.642v2.567A.642.642,0,0,0,424.642,283.851Zm.642-2.567h1.284v1.284h-1.284Z" transform="translate(-382.627 -250.179)" fill="#141414"/>
    <path id="Path_623" data-name="Path 623" d="M123.856,154.185l-1.221,2.441a.642.642,0,0,0,.574.929h6.418a.642.642,0,0,0,.574-.929l-1.75-3.5a5.131,5.131,0,1,0-4.6,1.058Zm4.733,2.087h-4.341l.964-1.927a5.1,5.1,0,0,0,2.158-.511Zm-2.7-3.284.529-1.057.377.755A3.823,3.823,0,0,1,125.89,152.988Zm-.755-7.627a3.849,3.849,0,0,1,2.721,6.573l-.863-1.726a.642.642,0,0,0-1.148,0l-1.4,2.792a3.85,3.85,0,0,1,.686-7.639Z" transform="translate(-103.015 -125.167)" fill="#141414"/>
    <path id="Path_624" data-name="Path 624" d="M248.879,173.066l7.389,2.17a.641.641,0,0,0,.8-.435l2.17-7.389a.642.642,0,0,0-.435-.8l-7.389-2.17a.642.642,0,0,0-.8.435l-2.17,7.389A.642.642,0,0,0,248.879,173.066Zm2.786-7.209,6.158,1.808-1.808,6.158-6.158-1.808Z" transform="translate(-221.131 -143.87)" fill="#141414"/>
    <path id="Path_625" data-name="Path 625" d="M128.355,10.5l2.567,1.284a.641.641,0,0,0,.287.068h15.4a1.925,1.925,0,0,0,0-3.851h-15.4a.641.641,0,0,0-.287.068l-2.567,1.284a.642.642,0,0,0,0,1.148Zm18.9-.574a.642.642,0,0,1-.642.642H133.135V9.284h13.478A.642.642,0,0,1,147.254,9.925Zm-15.893-.642h.49v1.284h-.49l-1.284-.642Z" transform="translate(-110.374)" fill="#141414"/>
  </g>
</svg>
