<svg xmlns="http://www.w3.org/2000/svg" width="956.213" height="494.292" viewBox="0 0 956.213 494.292">
  <g id="Group_1238" data-name="Group 1238" transform="translate(-223 -4370.632)">
    <circle id="Ellipse_30" data-name="Ellipse 30" cx="150.106" cy="150.106" r="150.106" transform="translate(223 4467)" fill="#fff"/>
    <g id="Group_1198" data-name="Group 1198" transform="translate(232.947 4477.317)">
      <path id="Path_639" data-name="Path 639" d="M792.638,293.995c-77.223,0-140.048-62.825-140.048-140.05S715.415,13.9,792.638,13.9s140.05,62.827,140.05,140.05S869.863,293.995,792.638,293.995Zm0-271.561c-72.514,0-131.509,59-131.509,131.511s59,131.511,131.509,131.511,131.511-59,131.511-131.511S865.154,22.434,792.638,22.434Z" transform="translate(-652.59 -13.895)" fill="#8b0ff3"/>
    </g>
    <circle id="Ellipse_31" data-name="Ellipse 31" cx="150.106" cy="150.106" r="150.106" transform="translate(551 4467)" fill="#fff"/>
    <g id="Group_1199" data-name="Group 1199" transform="translate(560.907 4477.317)">
      <path id="Path_640" data-name="Path 640" d="M946.277,293.995c-77.223,0-140.05-62.825-140.05-140.05S869.054,13.9,946.277,13.9s140.05,62.827,140.05,140.05S1023.5,293.995,946.277,293.995Zm0-271.561c-72.516,0-131.511,59-131.511,131.511s59,131.511,131.511,131.511,131.511-59,131.511-131.511S1018.793,22.434,946.277,22.434Z" transform="translate(-806.227 -13.895)" fill="#8b0ff3"/>
    </g>
    <circle id="Ellipse_32" data-name="Ellipse 32" cx="150.106" cy="150.106" r="150.106" transform="translate(879 4467)" fill="#fff"/>
    <g id="Group_1200" data-name="Group 1200" transform="translate(888.87 4477.317)">
      <path id="Path_641" data-name="Path 641" d="M1099.915,293.995c-77.223,0-140.05-62.825-140.05-140.05S1022.692,13.9,1099.915,13.9s140.05,62.827,140.05,140.05S1177.138,293.995,1099.915,293.995Zm0-271.561c-72.516,0-131.511,59-131.511,131.511s59,131.511,131.511,131.511,131.511-59,131.511-131.511S1172.431,22.434,1099.915,22.434Z" transform="translate(-959.865 -13.895)" fill="#1d39cf"/>
    </g>
    <g id="Group_1201" data-name="Group 1201" transform="translate(888.87 4477.317)">
      <path id="Path_642" data-name="Path 642" d="M1099.915,293.995c-77.223,0-140.05-62.825-140.05-140.05S1022.692,13.9,1099.915,13.9s140.05,62.827,140.05,140.05S1177.138,293.995,1099.915,293.995Zm0-271.561c-72.516,0-131.511,59-131.511,131.511s59,131.511,131.511,131.511,131.511-59,131.511-131.511S1172.431,22.434,1099.915,22.434Z" transform="translate(-959.865 -13.895)" fill="#8b0ff3"/>
    </g>
    <g id="Group_1205" data-name="Group 1205" transform="translate(245.754 4439.667)">
      <g id="Group_1202" data-name="Group 1202" transform="translate(7.674 0)">
        <path id="Path_643" data-name="Path 643" d="M900.38,44.139a1.068,1.068,0,0,1-.717-.275,175.268,175.268,0,0,0-235.693-.006,1.068,1.068,0,0,1-1.434-1.582,177.4,177.4,0,0,1,238.562.006,1.067,1.067,0,0,1-.717,1.857Z" transform="translate(-662.185 3.743)" fill="#fff"/>
      </g>
      <g id="Group_1203" data-name="Group 1203" transform="translate(0 37.424)">
        <path id="Path_644" data-name="Path 644" d="M672.632,28.139a8.025,8.025,0,1,1,.307-11.346A8.024,8.024,0,0,1,672.632,28.139Z" transform="translate(-658.025 -13.224)" fill="#fff"/>
        <path id="Path_645" data-name="Path 645" d="M673.932,29.479a9.093,9.093,0,1,0-12.855-.348,9.1,9.1,0,0,0,12.855.348C677.571,26.031,670.292,32.928,673.932,29.479ZM662.894,17.826a6.958,6.958,0,1,1-.267,9.836,6.966,6.966,0,0,1,.267-9.836C665.679,15.187,660.106,20.464,662.894,17.826Z" transform="translate(-658.59 -13.789)" fill="#8b0ff3"/>
      </g>
      <g id="Group_1204" data-name="Group 1204" transform="translate(236.425 37.424)">
        <path id="Path_646" data-name="Path 646" d="M772.35,28.139a8.026,8.026,0,1,0-.307-11.346A8.024,8.024,0,0,0,772.35,28.139Z" transform="translate(-768.781 -13.224)" fill="#fff"/>
        <path id="Path_647" data-name="Path 647" d="M772.181,29.479a9.093,9.093,0,1,1,12.855-.348,9.1,9.1,0,0,1-12.855.348C768.541,26.031,775.82,32.928,772.181,29.479Zm11.038-11.653a6.958,6.958,0,1,0,.267,9.836,6.966,6.966,0,0,0-.267-9.836Z" transform="translate(-769.346 -13.789)" fill="#8b0ff3"/>
      </g>
    </g>
    <g id="Group_1209" data-name="Group 1209" transform="translate(245.754 4739.226)">
      <g id="Group_1206" data-name="Group 1206" transform="translate(7.665 7.72)">
        <path id="Path_648" data-name="Path 648" d="M781.815,188.089a176.5,176.5,0,0,1-69.122-13.954,177.279,177.279,0,0,1-50.162-32.073,1.067,1.067,0,0,1,1.435-1.58,175.059,175.059,0,0,0,49.56,31.685,176.016,176.016,0,0,0,136.581,0,175.08,175.08,0,0,0,49.552-31.676,1.067,1.067,0,0,1,1.435,1.58,177.3,177.3,0,0,1-50.154,32.065A176.508,176.508,0,0,1,781.815,188.089Z" transform="translate(-662.181 -140.206)" fill="#fff"/>
      </g>
      <g id="Group_1207" data-name="Group 1207" transform="translate(236.425)">
        <path id="Path_649" data-name="Path 649" d="M772.35,139.286a8.026,8.026,0,1,1-.307,11.346A8.026,8.026,0,0,1,772.35,139.286Z" transform="translate(-768.781 -136.024)" fill="#fff"/>
        <path id="Path_650" data-name="Path 650" d="M772.181,139.076a9.093,9.093,0,1,0,12.855.348,9.1,9.1,0,0,0-12.855-.348Zm11.038,11.655a6.959,6.959,0,1,1,.267-9.839,6.964,6.964,0,0,1-.267,9.839C780.433,153.37,786,148.091,783.219,150.731Z" transform="translate(-769.346 -136.589)" fill="#8b0ff3"/>
      </g>
      <g id="Group_1208" data-name="Group 1208">
        <path id="Path_651" data-name="Path 651" d="M672.632,139.286a8.025,8.025,0,1,0,.307,11.346A8.026,8.026,0,0,0,672.632,139.286Z" transform="translate(-658.025 -136.024)" fill="#fff"/>
        <path id="Path_652" data-name="Path 652" d="M673.932,139.076a9.093,9.093,0,1,1-12.855.348,9.1,9.1,0,0,1,12.855-.348Zm-11.038,11.655a6.959,6.959,0,1,0-.267-9.839,6.964,6.964,0,0,0,.267,9.839Z" transform="translate(-658.59 -136.589)" fill="#8b0ff3"/>
      </g>
    </g>
    <g id="Group_1213" data-name="Group 1213" transform="translate(573.716 4439.667)">
      <g id="Group_1210" data-name="Group 1210" transform="translate(7.675 0)">
        <path id="Path_653" data-name="Path 653" d="M1054.018,44.139a1.073,1.073,0,0,1-.717-.275,175.265,175.265,0,0,0-235.693-.006,1.068,1.068,0,0,1-1.434-1.582,177.4,177.4,0,0,1,238.562.006,1.067,1.067,0,0,1-.717,1.857Z" transform="translate(-815.823 3.743)" fill="#fff"/>
      </g>
      <g id="Group_1211" data-name="Group 1211" transform="translate(0 37.424)">
        <path id="Path_654" data-name="Path 654" d="M826.271,28.139a8.026,8.026,0,1,1,.307-11.346A8.024,8.024,0,0,1,826.271,28.139Z" transform="translate(-811.662 -13.224)" fill="#fff"/>
        <path id="Path_655" data-name="Path 655" d="M827.57,29.479a9.093,9.093,0,1,0-12.857-.348,9.1,9.1,0,0,0,12.857.348ZM816.532,17.826a6.958,6.958,0,1,1-.267,9.836,6.965,6.965,0,0,1,.267-9.836C819.318,15.187,813.744,20.464,816.532,17.826Z" transform="translate(-812.227 -13.789)" fill="#8b0ff3"/>
      </g>
      <g id="Group_1212" data-name="Group 1212" transform="translate(236.425 37.424)">
        <path id="Path_656" data-name="Path 656" d="M925.989,28.139a8.026,8.026,0,1,0-.307-11.346A8.024,8.024,0,0,0,925.989,28.139Z" transform="translate(-922.418 -13.224)" fill="#fff"/>
        <path id="Path_657" data-name="Path 657" d="M925.819,29.479a9.093,9.093,0,1,1,12.855-.348,9.1,9.1,0,0,1-12.855.348C922.18,26.031,929.459,32.928,925.819,29.479Zm11.038-11.653a6.958,6.958,0,1,0,.267,9.836,6.966,6.966,0,0,0-.267-9.836Z" transform="translate(-922.984 -13.789)" fill="#8b0ff3"/>
      </g>
    </g>
    <g id="Group_1217" data-name="Group 1217" transform="translate(573.716 4739.226)">
      <g id="Group_1214" data-name="Group 1214" transform="translate(7.666 7.72)">
        <path id="Path_658" data-name="Path 658" d="M935.453,188.089a176.491,176.491,0,0,1-69.122-13.954,177.247,177.247,0,0,1-50.162-32.073,1.066,1.066,0,1,1,1.432-1.58,175.121,175.121,0,0,0,49.56,31.685,176.021,176.021,0,0,0,136.583,0A175.129,175.129,0,0,0,1053.3,140.49a1.066,1.066,0,1,1,1.432,1.58,177.246,177.246,0,0,1-50.151,32.065A176.509,176.509,0,0,1,935.453,188.089Z" transform="translate(-815.819 -140.206)" fill="#fff"/>
      </g>
      <g id="Group_1215" data-name="Group 1215" transform="translate(236.425)">
        <path id="Path_659" data-name="Path 659" d="M925.989,139.286a8.026,8.026,0,1,1-.307,11.346A8.026,8.026,0,0,1,925.989,139.286Z" transform="translate(-922.418 -136.024)" fill="#fff"/>
        <path id="Path_660" data-name="Path 660" d="M925.819,139.076a9.093,9.093,0,1,0,12.855.348,9.1,9.1,0,0,0-12.855-.348Zm11.038,11.655a6.959,6.959,0,1,1,.267-9.839,6.964,6.964,0,0,1-.267,9.839C934.072,153.37,939.643,148.091,936.858,150.731Z" transform="translate(-922.984 -136.589)" fill="#8b0ff3"/>
      </g>
      <g id="Group_1216" data-name="Group 1216">
        <path id="Path_661" data-name="Path 661" d="M826.271,139.286a8.026,8.026,0,1,0,.307,11.346A8.026,8.026,0,0,0,826.271,139.286Z" transform="translate(-811.662 -136.024)" fill="#fff"/>
        <path id="Path_662" data-name="Path 662" d="M827.57,139.076a9.093,9.093,0,1,1-12.857.348,9.1,9.1,0,0,1,12.857-.348C831.21,142.523,823.929,135.629,827.57,139.076Zm-11.038,11.655a6.959,6.959,0,1,0-.267-9.839,6.964,6.964,0,0,0,.267,9.839Z" transform="translate(-812.227 -136.589)" fill="#8b0ff3"/>
      </g>
    </g>
    <g id="Group_1221" data-name="Group 1221" transform="translate(901.677 4439.667)">
      <g id="Group_1218" data-name="Group 1218" transform="translate(7.675 0)">
        <path id="Path_663" data-name="Path 663" d="M1207.656,44.139a1.065,1.065,0,0,1-.717-.275,175.265,175.265,0,0,0-235.693-.006,1.068,1.068,0,1,1-1.434-1.582,177.4,177.4,0,0,1,238.561.006,1.067,1.067,0,0,1-.717,1.857Z" transform="translate(-969.461 3.743)" fill="#fff"/>
      </g>
      <g id="Group_1219" data-name="Group 1219" transform="translate(0 37.424)">
        <path id="Path_664" data-name="Path 664" d="M979.909,28.139a8.026,8.026,0,1,1,.307-11.346A8.027,8.027,0,0,1,979.909,28.139Z" transform="translate(-965.299 -13.224)" fill="#fff"/>
        <path id="Path_665" data-name="Path 665" d="M981.207,29.479a9.092,9.092,0,1,0-12.855-.348,9.1,9.1,0,0,0,12.855.348C984.846,26.031,977.567,32.928,981.207,29.479ZM970.168,17.826a6.959,6.959,0,1,1-.267,9.836,6.968,6.968,0,0,1,.267-9.836C972.956,15.187,967.383,20.464,970.168,17.826Z" transform="translate(-965.865 -13.789)" fill="#8b0ff3"/>
      </g>
      <g id="Group_1220" data-name="Group 1220" transform="translate(236.426 37.424)">
        <path id="Path_666" data-name="Path 666" d="M1079.625,28.139a8.026,8.026,0,1,0-.307-11.346A8.027,8.027,0,0,0,1079.625,28.139Z" transform="translate(-1076.057 -13.224)" fill="#fff"/>
        <path id="Path_667" data-name="Path 667" d="M1079.457,29.479a9.092,9.092,0,1,1,12.855-.348,9.1,9.1,0,0,1-12.855.348C1075.818,26.031,1083.1,32.928,1079.457,29.479ZM1090.5,17.826a6.959,6.959,0,1,0,.267,9.836,6.968,6.968,0,0,0-.267-9.836C1087.708,15.187,1093.281,20.464,1090.5,17.826Z" transform="translate(-1076.621 -13.789)" fill="#8b0ff3"/>
      </g>
    </g>
    <g id="Group_1225" data-name="Group 1225" transform="translate(901.677 4739.226)">
      <g id="Group_1222" data-name="Group 1222" transform="translate(7.667 7.72)">
        <path id="Path_668" data-name="Path 668" d="M1089.091,188.089a176.492,176.492,0,0,1-69.122-13.954,177.278,177.278,0,0,1-50.162-32.073,1.067,1.067,0,1,1,1.435-1.58,175.078,175.078,0,0,0,49.558,31.685,176.021,176.021,0,0,0,136.583,0,175.088,175.088,0,0,0,49.549-31.676,1.067,1.067,0,1,1,1.435,1.58,177.253,177.253,0,0,1-50.154,32.065A176.482,176.482,0,0,1,1089.091,188.089Z" transform="translate(-969.457 -140.206)" fill="#fff"/>
      </g>
      <g id="Group_1223" data-name="Group 1223" transform="translate(236.426)">
        <path id="Path_669" data-name="Path 669" d="M1079.625,139.286a8.026,8.026,0,1,1-.307,11.346A8.029,8.029,0,0,1,1079.625,139.286Z" transform="translate(-1076.057 -136.024)" fill="#fff"/>
        <path id="Path_670" data-name="Path 670" d="M1079.457,139.076a9.092,9.092,0,1,0,12.855.348,9.1,9.1,0,0,0-12.855-.348Zm11.038,11.655a6.96,6.96,0,1,1,.267-9.839,6.966,6.966,0,0,1-.267,9.839C1087.708,153.37,1093.281,148.091,1090.5,150.731Z" transform="translate(-1076.621 -136.589)" fill="#8b0ff3"/>
      </g>
      <g id="Group_1224" data-name="Group 1224">
        <path id="Path_671" data-name="Path 671" d="M979.909,139.286a8.026,8.026,0,1,0,.307,11.346A8.029,8.029,0,0,0,979.909,139.286Z" transform="translate(-965.299 -136.024)" fill="#fff"/>
        <path id="Path_672" data-name="Path 672" d="M981.207,139.076a9.092,9.092,0,1,1-12.855.348,9.1,9.1,0,0,1,12.855-.348Zm-11.038,11.655a6.96,6.96,0,1,0-.267-9.839,6.966,6.966,0,0,0,.267,9.839C972.956,153.37,967.383,148.091,970.168,150.731Z" transform="translate(-965.865 -136.589)" fill="#8b0ff3"/>
      </g>
    </g>
    <g id="Group_1226" data-name="Group 1226" transform="translate(371.987 4370.632)">
      <path id="Path_673" data-name="Path 673" d="M1028.4,35.08h-2.135V-2.947a31.038,31.038,0,0,0-31-31h-244.4a31.04,31.04,0,0,0-31,31V34.019h-2.135V-2.947a33.175,33.175,0,0,1,33.138-33.136h244.4A33.175,33.175,0,0,1,1028.4-2.947Z" transform="translate(-717.725 36.083)" fill="#fff"/>
    </g>
    <g id="Group_1227" data-name="Group 1227" transform="translate(714.183 4370.632)">
      <path id="Path_674" data-name="Path 674" d="M1188.7,35.08h-2.135V-2.947a31.038,31.038,0,0,0-31-31h-244.4a31.038,31.038,0,0,0-31,31V34.019h-2.135V-2.947a33.175,33.175,0,0,1,33.136-33.136h244.4A33.173,33.173,0,0,1,1188.7-2.947Z" transform="translate(-878.031 36.083)" fill="#fff"/>
    </g>
    <g id="Group_1228" data-name="Group 1228" transform="translate(718.452 4793.762)">
      <path id="Path_675" data-name="Path 675" d="M1157.567,233.3h-244.4a33.175,33.175,0,0,1-33.136-33.138V162.137h2.135v38.024a31.038,31.038,0,0,0,31,31h244.4a31.038,31.038,0,0,0,31-31V163.2h2.135v36.964A33.174,33.174,0,0,1,1157.567,233.3Z" transform="translate(-880.031 -162.137)" fill="#fff"/>
    </g>
    <g id="Group_1229" data-name="Group 1229" transform="translate(376.256 4793.762)">
      <path id="Path_676" data-name="Path 676" d="M997.261,233.3h-244.4a33.176,33.176,0,0,1-33.138-33.138V162.137h2.135v38.024a31.04,31.04,0,0,0,31,31h244.4a31.039,31.039,0,0,0,31-31V162.137h2.135v38.024A33.176,33.176,0,0,1,997.261,233.3Z" transform="translate(-719.725 -162.137)" fill="#fff"/>
    </g>
    <g id="Group_1237" data-name="Group 1237" transform="translate(1 -7.934)">
      <g id="share_1_" data-name="share (1)" transform="translate(989.996 4558.934)">
        <path id="Path_67" data-name="Path 67" d="M67.825,149.171H8.78A8.784,8.784,0,0,1,0,140.395V94.116A8.783,8.783,0,0,1,8.78,85.34H19.951a2.394,2.394,0,0,1,0,4.787H8.78a3.994,3.994,0,0,0-3.989,3.989v46.278a4,4,0,0,0,3.989,3.989H67.825a4,4,0,0,0,3.99-3.989V113.266a2.394,2.394,0,1,1,4.787,0v27.129A8.784,8.784,0,0,1,67.825,149.171Zm0,0" transform="translate(0 -72.572)" fill="#121212"/>
        <path id="Path_68" data-name="Path 68" d="M130.394,51.025a2.108,2.108,0,0,1-.527-.064A2.361,2.361,0,0,1,128,48.673V43.886a31.154,31.154,0,0,1,31.118-31.118h.8V2.395a2.393,2.393,0,0,1,4.117-1.66l20.745,21.543a2.39,2.39,0,0,1,0,3.319L164.036,47.141a2.392,2.392,0,0,1-4.117-1.66V35.109h-3.792a26.183,26.183,0,0,0-23.551,14.557,2.465,2.465,0,0,1-2.183,1.36Zm28.728-33.47A26.374,26.374,0,0,0,132.992,40.6a30.945,30.945,0,0,1,23.136-10.277h6.185a2.4,2.4,0,0,1,2.394,2.394v6.83l15.029-15.607L164.706,8.331v6.83a2.4,2.4,0,0,1-2.394,2.394Zm0,0" transform="translate(-108.85 0)" fill="#121212"/>
      </g>
      <text id="Share" transform="translate(1028 4679.768)" fill="#121212" font-size="30" font-family="Poppins-Medium, Poppins" font-weight="500" letter-spacing="0.005em"><tspan x="-44" y="0">Share</tspan></text>
    </g>
    <g id="Group_1235" data-name="Group 1235" transform="translate(0 -8)">
      <text id="Location" transform="translate(373 4679.768)" fill="#121212" font-size="30" font-family="Poppins-Medium, Poppins" font-weight="500" letter-spacing="0.005em"><tspan x="-64" y="0">Location</tspan></text>
      <g id="location-2" data-name="location" transform="translate(309 4559)">
        <g id="Group_1232" data-name="Group 1232" transform="translate(31)">
          <g id="Group_1231" data-name="Group 1231">
            <path id="Path_677" data-name="Path 677" d="M76.945,50.061c8.063-12.652,7.049-11.073,7.281-11.4a24.235,24.235,0,0,0,4.487-14.092A24.417,24.417,0,1,0,44.495,38.838l7.152,11.223C44,51.236,31,54.738,31,62.449c0,2.811,1.835,6.817,10.575,9.938,6.1,2.18,14.172,3.38,22.721,3.38,15.986,0,33.3-4.509,33.3-13.319C97.593,54.737,84.608,51.238,76.945,50.061ZM48.2,36.4q-.037-.057-.077-.112a19.978,19.978,0,1,1,32.5-.224c-.214.282.9-1.451-16.331,25.589ZM64.3,71.328c-17.461,0-28.857-5.133-28.857-8.879,0-2.518,5.855-6.659,18.831-8.272l8.154,12.8a2.22,2.22,0,0,0,3.744,0l8.154-12.8c12.975,1.614,18.831,5.754,18.831,8.272C93.153,66.164,81.86,71.328,64.3,71.328Z" transform="translate(-31)" fill="#121212"/>
          </g>
        </g>
        <g id="Group_1234" data-name="Group 1234" transform="translate(53.198 13.467)">
          <g id="Group_1233" data-name="Group 1233">
            <path id="Path_678" data-name="Path 678" d="M192.1,91a11.1,11.1,0,1,0,11.1,11.1A11.111,11.111,0,0,0,192.1,91Zm0,17.758a6.659,6.659,0,1,1,6.659-6.659A6.667,6.667,0,0,1,192.1,108.758Z" transform="translate(-181 -91)" fill="#121212"/>
          </g>
        </g>
      </g>
    </g>
    <g id="Group_1236" data-name="Group 1236" transform="translate(0 -8)">
      <text id="Spin_Weather" data-name="Spin Weather" transform="translate(701 4679.768)" fill="#121212" font-size="30" font-family="Poppins-Medium, Poppins" font-weight="500" letter-spacing="0.005em"><tspan x="-102" y="0">Spin Weather</tspan></text>
      <g id="hot" transform="translate(610.499 4559)">
        <path id="Path_679" data-name="Path 679" d="M87.09,47V9.614a9.614,9.614,0,1,0-19.228,0V47A15.974,15.974,0,1,0,87.09,47Zm-9.614,24.3a11.538,11.538,0,0,1-6.2-21.268,2.219,2.219,0,0,0,1.024-1.87V9.614a5.177,5.177,0,1,1,10.354,0V48.156a2.218,2.218,0,0,0,1.024,1.87,11.538,11.538,0,0,1-6.2,21.268Z" fill="#121212"/>
        <path id="Path_680" data-name="Path 680" d="M133.376,96.086V52.219a2.219,2.219,0,1,0-4.437,0V96.086a6.656,6.656,0,1,0,4.437,0Zm-2.219,8.493a2.219,2.219,0,1,1,2.219-2.219A2.221,2.221,0,0,1,131.157,104.579Z" transform="translate(-53.682 -42.604)" fill="#121212"/>
        <path id="Path_681" data-name="Path 681" d="M266.72,79.625a2.219,2.219,0,1,0,0,4.437,9.152,9.152,0,0,1,0,18.3,2.219,2.219,0,1,0,0,4.437,13.59,13.59,0,0,0,0-27.179Z" transform="translate(-172.974 -67.848)" fill="#121212"/>
        <path id="Path_682" data-name="Path 682" d="M266.719,8.284a2.219,2.219,0,0,0,2.219-2.219V2.22a2.219,2.219,0,1,0-4.437,0V6.065A2.219,2.219,0,0,0,266.719,8.284Z" transform="translate(-172.973 -0.001)" fill="#121212"/>
        <path id="Path_683" data-name="Path 683" d="M266.719,287a2.219,2.219,0,0,0-2.219,2.219v3.846a2.219,2.219,0,1,0,4.437,0V289.22A2.219,2.219,0,0,0,266.719,287Z" transform="translate(-172.973 -244.55)" fill="#121212"/>
        <path id="Path_684" data-name="Path 684" d="M400.565,156.5H396.72a2.219,2.219,0,0,0,0,4.437h3.845a2.219,2.219,0,0,0,0-4.437Z" transform="translate(-283.746 -133.353)" fill="#121212"/>
        <path id="Path_685" data-name="Path 685" d="M359,53a2.211,2.211,0,0,0,1.569-.65l2.719-2.719a2.219,2.219,0,1,0-3.138-3.138l-2.719,2.719A2.219,2.219,0,0,0,359,53Z" transform="translate(-251.602 -39.058)" fill="#121212"/>
        <path id="Path_686" data-name="Path 686" d="M360.212,249.075a2.219,2.219,0,1,0-3.138,3.138l2.719,2.719a2.219,2.219,0,1,0,3.137-3.137Z" transform="translate(-251.301 -211.68)" fill="#121212"/>
      </g>
    </g>
  </g>
</svg>
