<svg xmlns="http://www.w3.org/2000/svg" width="40.169" height="40.173" viewBox="0 0 40.169 40.173">
  <path id="home_1_" data-name="home (1)" d="M39.59,17.473l0,0L23.2,1.083a3.7,3.7,0,0,0-5.23,0L1.59,17.461l-.017.017a3.7,3.7,0,0,0,2.461,6.3c.038,0,.076.006.114.006H4.8V35.844A4.333,4.333,0,0,0,9.13,40.172h6.411A1.177,1.177,0,0,0,16.719,39V29.54a1.977,1.977,0,0,1,1.975-1.975h3.782A1.977,1.977,0,0,1,24.45,29.54V39a1.177,1.177,0,0,0,1.177,1.177h6.411a4.333,4.333,0,0,0,4.329-4.328V23.785h.606a3.7,3.7,0,0,0,2.617-6.312Zm-1.667,3.564a1.336,1.336,0,0,1-.951.394H35.19a1.177,1.177,0,0,0-1.177,1.177V35.844a1.977,1.977,0,0,1-1.975,1.974H26.8V29.541a4.334,4.334,0,0,0-4.329-4.329H18.694a4.334,4.334,0,0,0-4.329,4.329v8.278H9.13a1.977,1.977,0,0,1-1.975-1.974V22.608a1.177,1.177,0,0,0-1.177-1.177H4.227l-.055,0a1.343,1.343,0,0,1-.926-2.294h0L19.634,2.747a1.344,1.344,0,0,1,1.9,0L37.918,19.13l.008.007a1.347,1.347,0,0,1,0,1.9Zm0,0" transform="translate(-0.5 0)"/>
</svg>
