<svg xmlns="http://www.w3.org/2000/svg" width="57.537" height="75.73" viewBox="0 0 57.537 75.73">
  <g id="hot" transform="translate(-61.501)">
    <path id="Path_679" data-name="Path 679" d="M87.09,47V9.614a9.614,9.614,0,1,0-19.228,0V47A15.974,15.974,0,1,0,87.09,47Zm-9.614,24.3a11.538,11.538,0,0,1-6.2-21.268,2.219,2.219,0,0,0,1.024-1.87V9.614a5.177,5.177,0,1,1,10.354,0V48.156a2.218,2.218,0,0,0,1.024,1.87,11.538,11.538,0,0,1-6.2,21.268Z" fill="#121212"/>
    <path id="Path_680" data-name="Path 680" d="M133.376,96.086V52.219a2.219,2.219,0,1,0-4.437,0V96.086a6.656,6.656,0,1,0,4.437,0Zm-2.219,8.493a2.219,2.219,0,1,1,2.219-2.219A2.221,2.221,0,0,1,131.157,104.579Z" transform="translate(-53.682 -42.604)" fill="#121212"/>
    <path id="Path_681" data-name="Path 681" d="M266.72,79.625a2.219,2.219,0,1,0,0,4.437,9.152,9.152,0,0,1,0,18.3,2.219,2.219,0,1,0,0,4.437,13.59,13.59,0,0,0,0-27.179Z" transform="translate(-172.974 -67.848)" fill="#121212"/>
    <path id="Path_682" data-name="Path 682" d="M266.719,8.284a2.219,2.219,0,0,0,2.219-2.219V2.22a2.219,2.219,0,1,0-4.437,0V6.065A2.219,2.219,0,0,0,266.719,8.284Z" transform="translate(-172.973 -0.001)" fill="#121212"/>
    <path id="Path_683" data-name="Path 683" d="M266.719,287a2.219,2.219,0,0,0-2.219,2.219v3.846a2.219,2.219,0,1,0,4.437,0V289.22A2.219,2.219,0,0,0,266.719,287Z" transform="translate(-172.973 -244.55)" fill="#121212"/>
    <path id="Path_684" data-name="Path 684" d="M400.565,156.5H396.72a2.219,2.219,0,0,0,0,4.437h3.845a2.219,2.219,0,0,0,0-4.437Z" transform="translate(-283.746 -133.353)" fill="#121212"/>
    <path id="Path_685" data-name="Path 685" d="M359,53a2.211,2.211,0,0,0,1.569-.65l2.719-2.719a2.219,2.219,0,1,0-3.138-3.138l-2.719,2.719A2.219,2.219,0,0,0,359,53Z" transform="translate(-251.602 -39.058)" fill="#121212"/>
    <path id="Path_686" data-name="Path 686" d="M360.212,249.075a2.219,2.219,0,1,0-3.138,3.138l2.719,2.719a2.219,2.219,0,1,0,3.137-3.137Z" transform="translate(-251.301 -211.68)" fill="#121212"/>
  </g>
</svg>
