<svg width="24" height="24" viewBox="0 0 24 24" fill="none" xmlns="http://www.w3.org/2000/svg">
<path d="M12.402 9.6C13.626 7.425 14.943 5.598 15.138 5.331C17.202 6.306 18.747 8.208 19.224 10.497C18.894 10.503 15.852 10.518 12.402 9.6ZM10.407 10.254C10.236 10.605 10.071 10.962 9.918 11.322C9.864 11.448 9.81 11.574 9.759 11.703C7.305 11.394 4.863 11.889 4.62 11.94C4.635 10.197 5.259 8.598 6.285 7.341C6.444 7.554 7.68 9.141 10.407 10.254V10.254ZM0.960001 0H23.04C23.571 0 24 0.429 24 0.96V23.04C24 23.571 23.571 24 23.04 24H0.960001C0.429001 24 5.36442e-07 23.571 5.36442e-07 23.04V0.96C5.36442e-07 0.429 0.429001 0 0.960001 0ZM12 20.64C16.764 20.64 20.64 16.764 20.64 12C20.64 7.236 16.764 3.36 12 3.36C7.236 3.36 3.36 7.236 3.36 12C3.36 16.764 7.236 20.64 12 20.64ZM9.309 12.867C8.343 15.519 7.95 17.679 7.875 18.129C6.219 17.01 5.04 15.237 4.713 13.182C4.965 13.104 6.996 12.498 9.309 12.867ZM11.484 12.075C11.388 12.045 11.292 12.015 11.193 11.988C11.379 11.568 11.58 11.148 11.79 10.737C15.474 11.841 19.053 11.793 19.374 11.787C19.377 11.862 19.377 11.937 19.377 12.012C19.377 13.908 18.66 15.639 17.481 16.947C17.316 16.659 15.291 13.305 11.484 12.075V12.075ZM7.107 6.489C7.99531 5.69863 9.06198 5.13538 10.2156 4.8475C11.3693 4.55961 12.5755 4.55566 13.731 4.836C13.527 5.109 12.186 6.933 10.977 9.156C8.352 8.172 7.242 6.678 7.107 6.489V6.489ZM10.74 13.224C14.901 14.673 16.398 17.562 16.53 17.832C15.279 18.807 13.707 19.389 12 19.389C10.977 19.389 10.002 19.182 9.117 18.804C9.228 18.156 9.654 15.9 10.692 13.206L10.74 13.224Z" fill="#5B5B5B"/>
</svg>
