<svg width="29" height="44" viewBox="0 0 29 44" fill="none" xmlns="http://www.w3.org/2000/svg">
<g clip-path="url(#clip0_7:7819)">
<path d="M25.631 23.552L7.82902 41.352C7.41653 41.7638 6.85744 41.9952 6.27452 41.9952C5.6916 41.9952 5.1325 41.7638 4.72002 41.352L2.64402 39.279C2.23335 38.8666 2.00278 38.3084 2.00278 37.7265C2.00278 37.1445 2.23335 36.5863 2.64402 36.174L16.748 22L2.64002 7.82496C2.22935 7.41264 1.99878 6.8544 1.99878 6.27246C1.99878 5.69052 2.22935 5.13229 2.64002 4.71996L4.72002 2.64396C5.1325 2.23208 5.6916 2.00073 6.27452 2.00073C6.85744 2.00073 7.41653 2.23208 7.82902 2.64396L25.629 20.444C26.0409 20.8561 26.2724 21.4149 26.2727 21.9975C26.2731 22.5802 26.0423 23.1393 25.631 23.552V23.552Z" fill="#121212" stroke="white" stroke-width="4"/>
</g>
<defs>
<clipPath id="clip0_7:7819">
<rect width="28.274" height="44" fill="white"/>
</clipPath>
</defs>
</svg>
