<svg width="24" height="24" viewBox="0 0 24 24" fill="none" xmlns="http://www.w3.org/2000/svg">
<path d="M22.7812 0.28125H1.21875C0.700195 0.28125 0.28125 0.700195 0.28125 1.21875V22.7812C0.28125 23.2998 0.700195 23.7188 1.21875 23.7188H22.7812C23.2998 23.7188 23.7188 23.2998 23.7188 22.7812V1.21875C23.7188 0.700195 23.2998 0.28125 22.7812 0.28125ZM18.3076 8.76856C18.3164 8.90625 18.3164 9.0498 18.3164 9.19043C18.3164 13.4912 15.041 18.4453 9.05566 18.4453C7.20996 18.4453 5.49902 17.9092 4.05762 16.9863C4.32129 17.0156 4.57324 17.0273 4.84277 17.0273C6.36621 17.0273 7.7666 16.5117 8.88281 15.6387C7.45313 15.6094 6.25195 14.6719 5.8418 13.3828C6.34277 13.4561 6.79395 13.4561 7.30957 13.3242C6.57342 13.1747 5.91174 12.7749 5.43696 12.1927C4.96218 11.6106 4.70357 10.8821 4.70508 10.1309V10.0898C5.13574 10.333 5.64258 10.4824 6.17285 10.5029C5.72708 10.2058 5.3615 9.80335 5.10853 9.33114C4.85556 8.85893 4.72302 8.3316 4.72266 7.7959C4.72266 7.18945 4.88086 6.63574 5.16504 6.15527C5.98214 7.16114 7.00175 7.98381 8.15761 8.56982C9.31347 9.15583 10.5797 9.49205 11.874 9.55664C11.4141 7.34473 13.0664 5.55469 15.0527 5.55469C15.9902 5.55469 16.834 5.94727 17.4287 6.58008C18.1641 6.44238 18.8672 6.16699 19.4941 5.79785C19.251 6.55078 18.7412 7.18652 18.0645 7.58789C18.7207 7.51758 19.3535 7.33594 19.9395 7.08105C19.4971 7.73145 18.9434 8.30859 18.3076 8.76856V8.76856Z" fill="#5B5B5B"/>
</svg>
