<svg xmlns="http://www.w3.org/2000/svg" width="29.559" height="19.366" viewBox="0 0 29.559 19.366"><g transform="translate(.001)"><path fill="#fab446" d="M27.345 88.276H2.214A2.214 2.214 0 000 90.49v4.242h29.559V90.49a2.214 2.214 0 00-2.214-2.214z" data-name="Path 33791" transform="translate(-.001 -88.276)"></path><path fill="#73af00" d="M0 316.15a2.214 2.214 0 002.214 2.214h25.131a2.214 2.214 0 002.214-2.214v-4.242H0z" data-name="Path 33792" transform="translate(-.001 -298.997)"></path><path fill="#f5f5f5" d="M0 0H29.559V6.455H0z" data-name="Rectangle 10544" transform="translate(-.001 6.455)"></path><g fill="#41479b" data-name="Group 13451" transform="translate(12.04 6.944)"><path d="M211.291 214.031a2.739 2.739 0 112.739-2.739 2.742 2.742 0 01-2.739 2.739zm0-4.969a2.23 2.23 0 102.23 2.23 2.232 2.232 0 00-2.23-2.23z" data-name="Path 33793" transform="translate(-208.552 -208.552)"></path><ellipse cx="0.311" cy="0.311" data-name="Ellipse 220" rx="0.311" ry="0.311" transform="translate(2.429 2.429)"></ellipse><path d="M215.45 253.986l-.789.08-1.7-.08v-.093l1.7-.08.789.08z" data-name="Path 33794" transform="translate(-212.711 -251.2)"></path><path d="M256 253.986l.789.08 1.7-.08v-.093l-1.7-.08-.789.08z" data-name="Path 33795" transform="translate(-253.261 -251.2)"></path><path d="M253.893 215.45l-.08-.789.08-1.7h.093l.08 1.7-.08.789z" data-name="Path 33796" transform="translate(-251.2 -212.711)"></path><path d="M253.893 256l-.08.789.08 1.7h.093l.08-1.7-.08-.789z" data-name="Path 33797" transform="translate(-251.2 -253.261)"></path><path d="M226.757 226.823l-.614-.5-1.143-1.257.066-.066 1.255 1.142.5.614z" data-name="Path 33798" transform="translate(-224.05 -224.05)"></path><path d="M255.43 255.5l.5.614 1.255 1.142.066-.066-1.142-1.255-.614-.5z" data-name="Path 33799" transform="translate(-252.724 -252.724)"></path><path d="M255.43 226.757l.5-.614 1.257-1.143.066.066-1.142 1.255-.614.5z" data-name="Path 33800" transform="translate(-252.724 -224.05)"></path><path d="M226.757 255.43l-.614.5-1.143 1.257.066.066 1.255-1.142.5-.614z" data-name="Path 33801" transform="translate(-224.05 -252.724)"></path><path d="M218.264 255.34l-.7.376-1.6.575-.036-.086 1.536-.722.76-.228z" data-name="Path 33802" transform="translate(-215.507 -252.558)"></path><path d="M255.727 239.823l.76-.228 1.536-.722-.036-.086-1.6.575-.7.376z" data-name="Path 33803" transform="translate(-252.97 -237.041)"></path><path d="M239.737 218.264l-.376-.7-.575-1.6.086-.036.722 1.536.228.76z" data-name="Path 33804" transform="translate(-237.041 -215.507)"></path><path d="M255.254 255.727l.228.76.722 1.536.086-.036-.575-1.6-.376-.7z" data-name="Path 33805" transform="translate(-252.558 -252.97)"></path><path d="M218.228 239.823l-.76-.228-1.536-.722.036-.086 1.6.575.7.376z" data-name="Path 33806" transform="translate(-215.507 -237.041)"></path><path d="M255.691 255.34l.7.376 1.6.575.036-.086-1.536-.722-.76-.228z" data-name="Path 33807" transform="translate(-252.97 -252.558)"></path><path d="M255.254 218.228l.228-.76.722-1.536.086.036-.575 1.6-.376.7z" data-name="Path 33808" transform="translate(-252.558 -215.507)"></path><path d="M239.737 255.691l-.376.7-.575 1.6.086.036.722-1.536.228-.76z" data-name="Path 33809" transform="translate(-237.041 -252.97)"></path></g><ellipse cx="0.419" cy="0.419" fill="#f5f5f5" data-name="Ellipse 221" rx="0.419" ry="0.419" transform="translate(14.36 9.264)"></ellipse><ellipse cx="0.251" cy="0.251" fill="#41479b" data-name="Ellipse 222" rx="0.251" ry="0.251" transform="translate(14.528 9.432)"></ellipse></g></svg>