<svg xmlns="http://www.w3.org/2000/svg" width="66.593" height="75.768" viewBox="0 0 66.593 75.768">
  <g id="location" transform="translate(-31)">
    <g id="Group_1232" data-name="Group 1232" transform="translate(31)">
      <g id="Group_1231" data-name="Group 1231">
        <path id="Path_677" data-name="Path 677" d="M76.945,50.061c8.063-12.652,7.049-11.073,7.281-11.4a24.235,24.235,0,0,0,4.487-14.092A24.417,24.417,0,1,0,44.495,38.838l7.152,11.223C44,51.236,31,54.738,31,62.449c0,2.811,1.835,6.817,10.575,9.938,6.1,2.18,14.172,3.38,22.721,3.38,15.986,0,33.3-4.509,33.3-13.319C97.593,54.737,84.608,51.238,76.945,50.061ZM48.2,36.4q-.037-.057-.077-.112a19.978,19.978,0,1,1,32.5-.224c-.214.282.9-1.451-16.331,25.589ZM64.3,71.328c-17.461,0-28.857-5.133-28.857-8.879,0-2.518,5.855-6.659,18.831-8.272l8.154,12.8a2.22,2.22,0,0,0,3.744,0l8.154-12.8c12.975,1.614,18.831,5.754,18.831,8.272C93.153,66.164,81.86,71.328,64.3,71.328Z" transform="translate(-31)" fill="#121212"/>
      </g>
    </g>
    <g id="Group_1234" data-name="Group 1234" transform="translate(53.198 13.467)">
      <g id="Group_1233" data-name="Group 1233">
        <path id="Path_678" data-name="Path 678" d="M192.1,91a11.1,11.1,0,1,0,11.1,11.1A11.111,11.111,0,0,0,192.1,91Zm0,17.758a6.659,6.659,0,1,1,6.659-6.659A6.667,6.667,0,0,1,192.1,108.758Z" transform="translate(-181 -91)" fill="#121212"/>
      </g>
    </g>
  </g>
</svg>
