<svg width="28" height="24" viewBox="0 0 28 24" fill="none" xmlns="http://www.w3.org/2000/svg">
<path d="M0 7.42216V19.0002C0 20.2378 0.491665 21.4248 1.36683 22.3C2.242 23.1752 3.42899 23.6668 4.66667 23.6668H23.3333C24.571 23.6668 25.758 23.1752 26.6332 22.3C27.5083 21.4248 28 20.2378 28 19.0002V5.00016C28 3.76249 27.5083 2.5755 26.6332 1.70033C25.758 0.825161 24.571 0.333496 23.3333 0.333496H4.66667C3.42899 0.333496 2.242 0.825161 1.36683 1.70033C0.491665 2.5755 0 3.76249 0 5.00016V7.42216ZM4.66667 2.66683H23.3333C23.9522 2.66683 24.5457 2.91266 24.9832 3.35025C25.4208 3.78783 25.6667 4.38132 25.6667 5.00016V6.72683L14 13.0082L2.33333 6.72683V5.00016C2.33333 4.38132 2.57917 3.78783 3.01675 3.35025C3.45434 2.91266 4.04783 2.66683 4.66667 2.66683V2.66683ZM2.33333 9.3775L13.447 15.3602C13.617 15.4517 13.807 15.4996 14 15.4996C14.193 15.4996 14.383 15.4517 14.553 15.3602L25.6667 9.3775V19.0002C25.6667 19.619 25.4208 20.2125 24.9832 20.6501C24.5457 21.0877 23.9522 21.3335 23.3333 21.3335H4.66667C4.04783 21.3335 3.45434 21.0877 3.01675 20.6501C2.57917 20.2125 2.33333 19.619 2.33333 19.0002V9.3775Z" fill="#5B5B5B"/>
</svg>
