<svg width="16" height="24" viewBox="0 0 16 24" fill="none" xmlns="http://www.w3.org/2000/svg">
<path d="M13.8333 0.333496H2.16667C1.72464 0.333496 1.30072 0.509091 0.988156 0.821651C0.675595 1.13421 0.5 1.55814 0.5 2.00016V22.0002C0.5 22.4422 0.675595 22.8661 0.988156 23.1787C1.30072 23.4912 1.72464 23.6668 2.16667 23.6668H13.8333C14.2754 23.6668 14.6993 23.4912 15.0118 23.1787C15.3244 22.8661 15.5 22.4422 15.5 22.0002V2.00016C15.5 1.55814 15.3244 1.13421 15.0118 0.821651C14.6993 0.509091 14.2754 0.333496 13.8333 0.333496V0.333496ZM2.16667 2.00016H13.8333V17.0002H2.16667V2.00016ZM2.16667 22.0002V18.6668H13.8333V22.0002H2.16667Z" fill="#5B5B5B"/>
<path d="M7.16666 19.5H8.83333V21.1667H7.16666V19.5Z" fill="#5B5B5B"/>
</svg>
