<svg xmlns="http://www.w3.org/2000/svg" width="31.667" height="40" viewBox="0 0 31.667 40">
  <g id="notes" transform="translate(-2)">
    <path id="Path_3" data-name="Path 3" d="M29.5,37.556H6.167A4.111,4.111,0,0,1,2,33.515V6.04A4.111,4.111,0,0,1,6.167,2H29.5a4.111,4.111,0,0,1,4.167,4.04V33.515A4.111,4.111,0,0,1,29.5,37.556ZM6.167,3.616a2.466,2.466,0,0,0-2.5,2.424V33.515a2.466,2.466,0,0,0,2.5,2.424H29.5A2.466,2.466,0,0,0,32,33.515V6.04a2.466,2.466,0,0,0-2.5-2.424Z" transform="translate(0 2.444)" fill="#121212"/>
    <path id="Path_4" data-name="Path 4" d="M7.111,11.111A1.112,1.112,0,0,1,6,10V1.111a1.111,1.111,0,0,1,2.222,0V10A1.112,1.112,0,0,1,7.111,11.111Z" transform="translate(2.543)" fill="#121212"/>
    <path id="Path_5" data-name="Path 5" d="M12.611,11.111A1.112,1.112,0,0,1,11.5,10V1.111a1.111,1.111,0,1,1,2.222,0V10A1.112,1.112,0,0,1,12.611,11.111Z" transform="translate(6.04)" fill="#121212"/>
    <path id="Path_6" data-name="Path 6" d="M17.111,11.111A1.112,1.112,0,0,1,16,10V1.111a1.111,1.111,0,1,1,2.222,0V10A1.112,1.112,0,0,1,17.111,11.111Z" transform="translate(8.901)" fill="#121212"/>
    <path id="Path_7" data-name="Path 7" d="M21.44,19.222H6.671c-.371,0-.671-.5-.671-1.111S6.3,17,6.671,17H21.44c.371,0,.671.5.671,1.111S21.81,19.222,21.44,19.222Z" transform="translate(4.889 13.145)" fill="#121212"/>
    <path id="Path_8" data-name="Path 8" d="M21.44,15.222H6.671c-.371,0-.671-.5-.671-1.111S6.3,13,6.671,13H21.44c.371,0,.671.5.671,1.111S21.81,15.222,21.44,15.222Z" transform="translate(4.889 10.575)" fill="#121212"/>
    <path id="Path_9" data-name="Path 9" d="M20.444,11.222H7.111A1.111,1.111,0,0,1,7.111,9H20.444a1.111,1.111,0,0,1,0,2.222Z" transform="translate(4.889 8.005)" fill="#121212"/>
  </g>
</svg>
