<svg xmlns="http://www.w3.org/2000/svg" width="37.001" height="37" viewBox="0 0 37.001 37">
  <g id="notes" transform="translate(0 -0.005)">
    <g id="Group_303" data-name="Group 303" transform="translate(0 0.005)">
      <g id="Group_302" data-name="Group 302">
        <path id="Path_409" data-name="Path 409" d="M35.838,13.707a3.248,3.248,0,0,0-4.569.4l-3.085,3.651V7.168a3.266,3.266,0,0,0-1.012-2.358L23.054.9A3.238,3.238,0,0,0,20.814,0H3.252A3.256,3.256,0,0,0,0,3.257v30.5a3.256,3.256,0,0,0,3.252,3.252h21.68a3.256,3.256,0,0,0,3.252-3.252V27.83l8.055-9.542A3.25,3.25,0,0,0,35.838,13.707ZM21.68,2.584C26.017,6.7,25.709,6.4,25.79,6.509H21.68Zm4.336,31.169a1.085,1.085,0,0,1-1.084,1.084H3.252a1.085,1.085,0,0,1-1.084-1.084V3.257A1.085,1.085,0,0,1,3.252,2.173h16.26v5.42A1.084,1.084,0,0,0,20.6,8.677h5.42V20.321l-4.608,5.453a3.268,3.268,0,0,0-.672,1.335l-1.007,4.217a1.084,1.084,0,0,0,1.485,1.246l3.978-1.724a3.268,3.268,0,0,0,.824-.517Zm-2.578-7.022L25.1,28.124l-.369.437a1.088,1.088,0,0,1-.4.3l-1.989.862.5-2.109a1.085,1.085,0,0,1,.221-.442Zm3.059-.263-1.66-1.393,5.992-7.09,1.656,1.39Zm8.084-9.576-.7.826-1.655-1.389.7-.828a1.08,1.08,0,0,1,1.653,1.391Z" transform="translate(0 -0.005)" fill="#141414"/>
      </g>
    </g>
    <g id="Group_305" data-name="Group 305" transform="translate(4.336 6.509)">
      <g id="Group_304" data-name="Group 304">
        <path id="Path_410" data-name="Path 410" d="M71.922,90H61.082a1.084,1.084,0,1,0,0,2.168h10.84a1.084,1.084,0,1,0,0-2.168Z" transform="translate(-59.998 -90.003)" fill="#141414"/>
      </g>
    </g>
    <g id="Group_307" data-name="Group 307" transform="translate(4.336 13.085)">
      <g id="Group_306" data-name="Group 306">
        <path id="Path_411" data-name="Path 411" d="M78.426,181H61.082a1.084,1.084,0,1,0,0,2.168H78.426a1.084,1.084,0,1,0,0-2.168Z" transform="translate(-59.998 -181.001)" fill="#141414"/>
      </g>
    </g>
    <g id="Group_309" data-name="Group 309" transform="translate(4.336 19.589)">
      <g id="Group_308" data-name="Group 308">
        <path id="Path_412" data-name="Path 412" d="M78.426,271H61.082a1.084,1.084,0,0,0,0,2.168H78.426a1.084,1.084,0,1,0,0-2.168Z" transform="translate(-59.998 -271)" fill="#141414"/>
      </g>
    </g>
    <g id="Group_311" data-name="Group 311" transform="translate(4.336 26.093)">
      <g id="Group_310" data-name="Group 310">
        <path id="Path_413" data-name="Path 413" d="M71.922,361H61.082a1.084,1.084,0,0,0,0,2.168h10.84a1.084,1.084,0,0,0,0-2.168Z" transform="translate(-59.998 -360.998)" fill="#141414"/>
      </g>
    </g>
  </g>
</svg>
