<svg xmlns="http://www.w3.org/2000/svg" width="20.942" height="36" viewBox="0 0 20.942 36">
  <g id="optimization" transform="translate(-107.077)">
    <circle id="Ellipse_3" data-name="Ellipse 3" cx="0.71" cy="0.71" r="0.71" transform="translate(114.849 1.806)" fill="#141414"/>
    <path id="Path_399" data-name="Path 399" d="M250.787,28.285h-2.77a.527.527,0,0,0,0,1.055h2.77a.527.527,0,0,0,0-1.055Z" transform="translate(-130.54 -26.296)" fill="#141414"/>
    <path id="Path_400" data-name="Path 400" d="M236.533,344.039a1.593,1.593,0,1,0-1.593,1.593A1.595,1.595,0,0,0,236.533,344.039Zm-2.131,0a.538.538,0,1,1,.538.538A.539.539,0,0,1,234.4,344.039Z" transform="translate(-117.393 -318.368)" fill="#141414"/>
    <path id="Path_401" data-name="Path 401" d="M179.106,292.674h2.131a.527.527,0,0,0,.527-.527V290.5a4.122,4.122,0,0,0,.862-.5l1.423.822a.527.527,0,0,0,.72-.193l1.065-1.845a.527.527,0,0,0-.193-.72l-1.423-.822a4.042,4.042,0,0,0,0-1l1.423-.822a.527.527,0,0,0,.193-.72l-1.065-1.845a.527.527,0,0,0-.72-.193l-1.423.822a4.118,4.118,0,0,0-.862-.5V281.35a.527.527,0,0,0-.527-.527h-2.131a.527.527,0,0,0-.527.527v1.643a4.121,4.121,0,0,0-.862.5l-1.423-.822a.527.527,0,0,0-.72.193l-1.065,1.845a.527.527,0,0,0,.193.72l1.423.822a4.044,4.044,0,0,0,0,1l-1.423.822a.527.527,0,0,0-.193.72l1.065,1.845a.527.527,0,0,0,.72.193l1.424-.822a4.12,4.12,0,0,0,.862.5v1.643a.527.527,0,0,0,.527.527Zm-.979-3.7a.527.527,0,0,0-.62-.068l-1.285.742-.538-.932,1.284-.742a.527.527,0,0,0,.251-.571,3.014,3.014,0,0,1,0-1.314.527.527,0,0,0-.251-.571l-1.284-.741.538-.932,1.285.742a.527.527,0,0,0,.62-.068,3.038,3.038,0,0,1,1.137-.657.527.527,0,0,0,.369-.5v-1.482h1.076v1.482a.527.527,0,0,0,.369.5,3.039,3.039,0,0,1,1.137.657.527.527,0,0,0,.62.068l1.285-.742.538.932-1.284.741a.527.527,0,0,0-.251.571,3.016,3.016,0,0,1,0,1.314.527.527,0,0,0,.251.571l1.284.742-.538.932-1.285-.742a.527.527,0,0,0-.62.068,3.04,3.04,0,0,1-1.137.657.527.527,0,0,0-.369.5v1.482h-1.076v-1.482a.527.527,0,0,0-.369-.5A3.04,3.04,0,0,1,178.128,288.977Z" transform="translate(-62.624 -261.078)" fill="#141414"/>
    <path id="Path_402" data-name="Path 402" d="M171.728,182.356v3.551a.527.527,0,0,0,.527.527h2.131a.527.527,0,0,0,.527-.527v-3.551a.527.527,0,0,0-.527-.527h-2.131A.527.527,0,0,0,171.728,182.356Zm1.055.527h1.076v2.5h-1.076Z" transform="translate(-60.105 -169.044)" fill="#141414"/>
    <path id="Path_403" data-name="Path 403" d="M298.152,148.342v-6.392a.527.527,0,0,0-.527-.527h-2.131a.527.527,0,0,0-.527.527v6.392a.527.527,0,0,0,.527.527h2.131A.527.527,0,0,0,298.152,148.342Zm-1.055-.527h-1.076v-5.338H297.1Z" transform="translate(-174.679 -131.478)" fill="#141414"/>
    <path id="Path_404" data-name="Path 404" d="M233.875,167.653h2.131a.527.527,0,0,0,.527-.527v-4.972a.527.527,0,0,0-.527-.527h-2.131a.527.527,0,0,0-.527.527v4.972A.527.527,0,0,0,233.875,167.653Zm.527-4.972h1.076V166.6H234.4Z" transform="translate(-117.393 -150.262)" fill="#141414"/>
    <path id="Path_405" data-name="Path 405" d="M191.6,99.036a.527.527,0,0,0-.651-.025l-2.841,2.06a.527.527,0,0,0,.619.854l2.506-1.817,1.1.939a.527.527,0,0,0,.631.039l2.329-1.533.4.614,1.132-2.256-2.52.147.4.614-2,1.316Z" transform="translate(-75.13 -91.027)" fill="#141414"/>
    <path id="Path_406" data-name="Path 406" d="M127.492,0H107.6a.527.527,0,0,0-.527.527v21.3a.527.527,0,0,0,1.055,0V3.186H112.2l.514,1.131a1.952,1.952,0,0,0,1.773,1.142h6.126a1.952,1.952,0,0,0,1.773-1.142l.514-1.131h4.066V8.47a.527.527,0,1,0,1.055,0V.527A.527.527,0,0,0,127.492,0Zm-4.933,2.131a.527.527,0,0,0-.48.309l-.655,1.44a.9.9,0,0,1-.813.524h-6.126a.9.9,0,0,1-.813-.524l-.655-1.44a.527.527,0,0,0-.48-.309h-4.406V1.055h18.833V2.131Z" fill="#141414"/>
    <path id="Path_407" data-name="Path 407" d="M127.492,148.083a.527.527,0,0,0-.527.527v21.875H108.132v-8.51a.527.527,0,0,0-1.055,0v11.168a.527.527,0,0,0,.527.527h19.888a.527.527,0,0,0,.527-.527V148.61a.527.527,0,0,0-.527-.527Zm-19.36,24.533V171.54h18.833v1.076Z" transform="translate(0 -137.671)" fill="#141414"/>
  </g>
</svg>
