<svg xmlns="http://www.w3.org/2000/svg" width="41.241" height="41.245" viewBox="0 0 41.241 41.245">
  <g id="Page-1" transform="translate(0.249 0.253)">
    <g id="_010---Idea" data-name="010---Idea" transform="translate(-0.002 -0.003)">
      <path id="Shape" d="M2,26.389A4.846,4.846,0,0,0,2.7,26.8c.293.15.785.4.82.577a1.18,1.18,0,0,1-.08.688c-.1.217-.207.4-.3.565-.249.439-.665,1.175-.037,1.688.147.136.4.332.631.509a1.71,1.71,0,0,0-.221.98.978.978,0,0,0,.4.667c.151.107.312.2.471.289.4.229.558.335.611.548a1.871,1.871,0,0,1-.068.815c-.04.181-.079.363-.1.543A4.041,4.041,0,0,0,5.056,36.5a2.544,2.544,0,0,0,2.4,1.85,2.73,2.73,0,0,0,.557-.059,51.528,51.528,0,0,0,5.725-1.713c1.53.9,2.5,3.627,2.748,4.652a.679.679,0,0,0,.659.515l17.044-.048a.679.679,0,0,0,.646-.883,5.239,5.239,0,0,0-.688-1.29,6.338,6.338,0,0,1-.439-.735,12.827,12.827,0,0,1-.767-1.931,22.912,22.912,0,0,1-.8-3.972.679.679,0,1,0-1.347.166,24.224,24.224,0,0,0,.847,4.21,14.231,14.231,0,0,0,.843,2.125,7.532,7.532,0,0,0,.526.888l.045.068-15.4.044a10.817,10.817,0,0,0-2.39-4.336l.611-.214c.455-.159.8-.278.974-.335,2.909-.92,4.364-2.245,4.324-3.938a.661.661,0,0,0-.691-.663.679.679,0,0,0-.663.695c.016.7-.556,1.718-3.379,2.611-.184.059-.538.183-1.009.347-.5.177-1.146.4-1.854.641h0a52.836,52.836,0,0,1-5.84,1.766,1.2,1.2,0,0,1-1.4-.905,2.7,2.7,0,0,1-.16-1.211c.018-.143.05-.284.081-.426a2.975,2.975,0,0,0,.059-1.446A2.256,2.256,0,0,0,5.065,31.58L4.924,31.5a2.545,2.545,0,0,1,.261-.42.679.679,0,0,0-.13-.967c-.163-.12-.547-.407-.828-.634.033-.059.068-.124.1-.183.107-.187.228-.4.347-.655a2.546,2.546,0,0,0,.181-1.52c-.163-.828-.956-1.234-1.535-1.531a3.859,3.859,0,0,1-.558-.324,2.884,2.884,0,0,1-.407-.331c0-.1.11-.351.627-.982A27.314,27.314,0,0,0,6.092,18.9a2.006,2.006,0,0,0,.263-.919,2.377,2.377,0,0,0-.992-1.7c-.275-.252-.534-.49-.564-.709a1.234,1.234,0,0,1,.106-.467c.111-.291.238-.577.367-.862a9.92,9.92,0,0,0,.664-1.791L6,12.171a16.978,16.978,0,0,1,.555-2A11.645,11.645,0,0,1,9,6.186a11.2,11.2,0,0,1,6.087-2.892,44.137,44.137,0,0,1,6.371-.918,14.483,14.483,0,0,1,3.2.181.679.679,0,0,0,.232-1.338,15.771,15.771,0,0,0-3.5-.2,45.323,45.323,0,0,0-6.568.943,12.35,12.35,0,0,0-6.806,3.29A13.01,13.01,0,0,0,5.285,9.7a18.418,18.418,0,0,0-.6,2.168l-.068.287A8.86,8.86,0,0,1,4.035,13.7c-.136.31-.277.619-.4.94a2.274,2.274,0,0,0-.18,1.136,2.593,2.593,0,0,0,.99,1.516c.332.3.55.519.553.706a1.128,1.128,0,0,1-.116.3,26.2,26.2,0,0,1-2.974,4.833,2.809,2.809,0,0,0-.9,1.993A2.073,2.073,0,0,0,2,26.389Z" transform="translate(-0.998 -0.997)" fill="#141414" stroke="#141414" stroke-width="0.5"/>
      <path id="Shape-2" data-name="Shape" d="M11.534,14.975l.068-.3A15.132,15.132,0,0,1,12.055,13a8.948,8.948,0,0,1,1.863-3.056,7.11,7.11,0,0,1,3.13-1.719.679.679,0,1,0-.4-1.3A8.409,8.409,0,0,0,12.93,9.015a10.308,10.308,0,0,0-2.148,3.519,16.185,16.185,0,0,0-.5,1.84l-.068.294a.679.679,0,0,0,.507.815.666.666,0,0,0,.154.018A.679.679,0,0,0,11.534,14.975Z" transform="translate(-3.95 -2.89)" fill="#141414" stroke="#141414" stroke-width="0.5"/>
      <ellipse id="Oval" cx="0.5" rx="0.5" transform="translate(5.371 14.371)" fill="#141414" stroke="#141414" stroke-width="0.5"/>
      <path id="Shape-3" data-name="Shape" d="M28,16.97a9.307,9.307,0,0,0,2.294,6.308,11.666,11.666,0,0,0,1.562,1.358A5.216,5.216,0,0,1,34.04,27.16a2.037,2.037,0,0,0-1.287,1.89v1.358A2.037,2.037,0,0,0,34.11,32.32v.125a2.716,2.716,0,0,0,5.432,0V32.32A2.037,2.037,0,0,0,40.9,30.408V29.05a2.037,2.037,0,0,0-1.29-1.89A5.224,5.224,0,0,1,41.8,24.636a11.716,11.716,0,0,0,1.562-1.358,9.312,9.312,0,0,0,2.3-6.308A8.829,8.829,0,1,0,28,16.97Zm6.79,1.215H34.11a.679.679,0,1,1,.679-.679Zm2.716,8.828H36.148V19.544h1.358Zm-.679,6.79a1.358,1.358,0,0,1-1.358-1.358h2.716A1.358,1.358,0,0,1,36.827,33.8Zm2.716-3.4a.679.679,0,0,1-.679.679H34.79a.679.679,0,0,1-.679-.679V29.05a.679.679,0,0,1,.679-.679h4.074a.679.679,0,0,1,.679.679ZM44.3,16.991a7.94,7.94,0,0,1-1.944,5.377,10.612,10.612,0,0,1-1.383,1.193,9.506,9.506,0,0,0-2.105,2.009V19.544h.679a2.037,2.037,0,1,0-2.037-2.037v.679H36.148v-.679a2.037,2.037,0,1,0-2.037,2.037h.679v6.027a9.5,9.5,0,0,0-2.1-2.009A10.632,10.632,0,0,1,31.3,22.368a7.936,7.936,0,0,1-1.947-5.377,7.744,7.744,0,0,1,7.469-7.633A7.742,7.742,0,0,1,44.3,16.991Zm-5.432,1.194v-.679a.679.679,0,1,1,.679.679Z" transform="translate(-9.664 -3.244)" fill="#141414" stroke="#141414" stroke-width="0.5"/>
      <path id="Shape-4" data-name="Shape" d="M56.679,21.358h2.037a.679.679,0,0,0,0-1.358H56.679a.679.679,0,1,0,0,1.358Z" transform="translate(-18.652 -7.096)" fill="#141414" stroke="#141414" stroke-width="0.5"/>
      <path id="Shape-5" data-name="Shape" d="M51.992,9.36a.679.679,0,0,0,.481-.2l1.44-1.441a.679.679,0,1,0-.96-.96L51.512,8.2a.679.679,0,0,0,.48,1.16Z" transform="translate(-17.147 -2.78)" fill="#141414" stroke="#141414" stroke-width="0.5"/>
      <path id="Shape-6" data-name="Shape" d="M40.679,4.4a.679.679,0,0,0,.679-.679V1.679a.679.679,0,1,0-1.358,0V3.716A.679.679,0,0,0,40.679,4.4Z" transform="translate(-13.516 -0.998)" fill="#141414" stroke="#141414" stroke-width="0.5"/>
      <path id="Shape-7" data-name="Shape" d="M29.161,9.161a.679.679,0,0,0,0-.961L27.72,6.76a.679.679,0,1,0-.96.96L28.2,9.161a.679.679,0,0,0,.961,0Z" transform="translate(-9.2 -2.78)" fill="#141414" stroke="#141414" stroke-width="0.5"/>
      <path id="Shape-8" data-name="Shape" d="M21.679,20a.679.679,0,1,0,0,1.358h2.037a.679.679,0,0,0,0-1.358Z" transform="translate(-7.418 -7.096)" fill="#141414" stroke="#141414" stroke-width="0.5"/>
    </g>
  </g>
</svg>
