<svg xmlns="http://www.w3.org/2000/svg" width="46" height="31.596" viewBox="0 0 46 31.596">
  <g id="prototype" transform="translate(0 -0.5)">
    <path id="Path_691" data-name="Path 691" d="M14.358.5H2.834A2.838,2.838,0,0,0,0,3.334V29.262A2.838,2.838,0,0,0,2.834,32.1H14.358a2.838,2.838,0,0,0,2.835-2.834V3.334A2.838,2.838,0,0,0,14.358.5ZM2.834,1.848H14.358a1.488,1.488,0,0,1,1.487,1.487V27.868H1.348V3.334A1.488,1.488,0,0,1,2.834,1.848Zm11.524,28.9H2.834a1.488,1.488,0,0,1-1.487-1.487v-.046h14.5v.046a1.488,1.488,0,0,1-1.487,1.487Zm0,0" fill="#141414"/>
    <path id="Path_692" data-name="Path 692" d="M335,.5H323.478a2.838,2.838,0,0,0-2.834,2.834V29.262a2.838,2.838,0,0,0,2.834,2.834H335a2.838,2.838,0,0,0,2.835-2.834V3.334A2.838,2.838,0,0,0,335,.5ZM323.478,1.848H335a1.489,1.489,0,0,1,1.487,1.487V27.868h-14.5V3.334a1.488,1.488,0,0,1,1.487-1.487ZM335,30.748H323.478a1.488,1.488,0,0,1-1.487-1.487v-.046h14.5v.046A1.488,1.488,0,0,1,335,30.748Zm0,0" transform="translate(-291.836)" fill="#141414"/>
    <path id="Path_693" data-name="Path 693" d="M32.736,50.571H42.819a.674.674,0,0,0,.674-.674V41.255a.674.674,0,0,0-.674-.674H32.736a.674.674,0,0,0-.674.674v3.6a.674.674,0,1,0,1.348,0V42.72l3.332,2.856L33.41,48.433v-.7a.674.674,0,1,0-1.348,0V49.9a.674.674,0,0,0,.674.674Zm6.077-5,3.332-2.856v5.712Zm-4.255-3.647H41l-3.22,2.76ZM41,49.224h-6.44l3.22-2.76Zm0,0" transform="translate(-29.182 -36.481)" fill="#141414"/>
    <path id="Path_694" data-name="Path 694" d="M32.736,178.829H42.819a.674.674,0,0,0,.674-.674v-8.642a.674.674,0,0,0-.674-.674H32.736a.674.674,0,0,0-.674.674v8.642A.674.674,0,0,0,32.736,178.829Zm9.409-2.139-3.332-2.856,3.332-2.856ZM41,177.482h-6.44l3.22-2.76Zm-3.22-4.535-3.22-2.76H41Zm-1.035.887-3.332,2.856v-5.712Zm0,0" transform="translate(-29.182 -153.215)" fill="#141414"/>
    <path id="Path_695" data-name="Path 695" d="M353.385,50.571h10.083a.674.674,0,0,0,.674-.674V45.576a.674.674,0,1,0-1.348,0v3.647h-8.735V41.929h8.735V42.7a.674.674,0,0,0,1.348,0v-1.44a.674.674,0,0,0-.674-.674H353.385a.674.674,0,0,0-.674.674V49.9a.674.674,0,0,0,.674.674Zm0,0" transform="translate(-321.022 -36.48)" fill="#141414"/>
    <path id="Path_696" data-name="Path 696" d="M399.945,168.84h-6.482a.674.674,0,0,0,0,1.348h6.482a.674.674,0,0,0,0-1.348Zm0,0" transform="translate(-357.5 -153.216)" fill="#141414"/>
    <path id="Path_697" data-name="Path 697" d="M399.945,200.9h-6.482a.674.674,0,0,0,0,1.348h6.482a.674.674,0,0,0,0-1.348Zm0,0" transform="translate(-357.5 -182.397)" fill="#141414"/>
    <path id="Path_698" data-name="Path 698" d="M399.945,265.031h-6.482a.674.674,0,0,0,0,1.348h6.482a.674.674,0,0,0,0-1.348Zm0,0" transform="translate(-357.5 -240.765)" fill="#141414"/>
    <path id="Path_699" data-name="Path 699" d="M399.945,232.969h-6.482a.674.674,0,0,0,0,1.348h6.482a.674.674,0,0,0,0-1.348Zm0,0" transform="translate(-357.5 -211.583)" fill="#141414"/>
    <path id="Path_700" data-name="Path 700" d="M353.385,170.188h.72a.674.674,0,0,0,0-1.348h-.72a.674.674,0,0,0,0,1.348Zm0,0" transform="translate(-321.022 -153.216)" fill="#141414"/>
    <path id="Path_701" data-name="Path 701" d="M353.385,202.25h.72a.674.674,0,0,0,0-1.348h-.72a.674.674,0,0,0,0,1.348Zm0,0" transform="translate(-321.022 -182.397)" fill="#141414"/>
    <path id="Path_702" data-name="Path 702" d="M353.385,266.379h.72a.674.674,0,0,0,0-1.348h-.72a.674.674,0,0,0,0,1.348Zm0,0" transform="translate(-321.022 -240.765)" fill="#141414"/>
    <path id="Path_703" data-name="Path 703" d="M353.385,234.317h.72a.674.674,0,0,0,0-1.348h-.72a.674.674,0,0,0,0,1.348Zm0,0" transform="translate(-321.022 -211.583)" fill="#141414"/>
    <path id="Path_704" data-name="Path 704" d="M216.641,147.045l-3.6-2.16a.674.674,0,1,0-.693,1.156l1.515.909h-4.769a.674.674,0,0,0,0,1.348h4.769l-1.515.909a.674.674,0,1,0,.693,1.155l3.6-2.16a.674.674,0,0,0,0-1.156Zm0,0" transform="translate(-189.693 -131.325)" fill="#141414"/>
  </g>
</svg>
