<svg xmlns="http://www.w3.org/2000/svg" width="40.229" height="40.23" viewBox="0 0 40.229 40.23">
  <g id="research" transform="translate(-0.001)">
    <g id="Group_1162" data-name="Group 1162" transform="translate(0.001)">
      <g id="Group_1161" data-name="Group 1161">
        <path id="Path_606" data-name="Path 606" d="M31.011,0H2.515A2.514,2.514,0,0,0,0,2.514V22.629a2.514,2.514,0,0,0,2.514,2.514h10.9V23.467H2.515a.838.838,0,0,1-.838-.838V2.514a.838.838,0,0,1,.838-.838h28.5a.838.838,0,0,1,.838.838V17.6h1.676V2.514A2.514,2.514,0,0,0,31.011,0Z" transform="translate(-0.001)" fill="#141414"/>
      </g>
    </g>
    <g id="Group_1164" data-name="Group 1164" transform="translate(10.058 24.305)">
      <g id="Group_1163" data-name="Group 1163">
        <rect id="Rectangle_58" data-name="Rectangle 58" width="1.676" height="5.029" fill="#141414"/>
      </g>
    </g>
    <g id="Group_1166" data-name="Group 1166" transform="translate(3.353 17.6)">
      <g id="Group_1165" data-name="Group 1165">
        <path id="Path_607" data-name="Path 607" d="M45.182,226.514a.838.838,0,0,1-.838-.838V224H42.668v1.676a2.514,2.514,0,0,0,2.514,2.514h1.676v-1.676Z" transform="translate(-42.668 -224)" fill="#141414"/>
      </g>
    </g>
    <g id="Group_1168" data-name="Group 1168" transform="translate(3.353 14.248)">
      <g id="Group_1167" data-name="Group 1167">
        <rect id="Rectangle_59" data-name="Rectangle 59" width="1.676" height="1.676" fill="#141414"/>
      </g>
    </g>
    <g id="Group_1170" data-name="Group 1170" transform="translate(15.086 15.085)">
      <g id="Group_1169" data-name="Group 1169">
        <path id="Path_608" data-name="Path 608" d="M207.532,194.657a9.106,9.106,0,1,0,0,12.878A9.106,9.106,0,0,0,207.532,194.657Zm-6.444,13.869a7.43,7.43,0,1,1,7.432-7.427A7.43,7.43,0,0,1,201.087,208.526Z" transform="translate(-191.986 -191.989)" fill="#141414"/>
      </g>
    </g>
    <g id="Group_1172" data-name="Group 1172" transform="translate(30.955 30.953)">
      <g id="Group_1171" data-name="Group 1171">
        <path id="Path_609" data-name="Path 609" d="M402.986,399.447l-5.261-5.259a.838.838,0,0,0-1.185,0l-2.338,2.338a.838.838,0,0,0,0,1.185l5.261,5.262a.838.838,0,0,0,.593.246h0a.838.838,0,0,0,.593-.248l2.338-2.338A.838.838,0,0,0,402.986,399.447Zm-2.931,1.748-4.076-4.077,1.153-1.153,4.076,4.077Z" transform="translate(-393.956 -393.942)" fill="#141414"/>
      </g>
    </g>
    <g id="Group_1174" data-name="Group 1174" transform="translate(29.446 29.445)">
      <g id="Group_1173" data-name="Group 1173" transform="translate(0 0)">
        <rect id="Rectangle_60" data-name="Rectangle 60" width="1.676" height="4.134" transform="translate(0 1.185) rotate(-45)" fill="#141414"/>
      </g>
    </g>
    <g id="Group_1176" data-name="Group 1176" transform="translate(24.306 18.439)">
      <g id="Group_1175" data-name="Group 1175">
        <path id="Path_610" data-name="Path 610" d="M309.334,234.667v1.676a4.2,4.2,0,0,1,4.191,4.191H315.2A5.873,5.873,0,0,0,309.334,234.667Z" transform="translate(-309.334 -234.667)" fill="#141414"/>
      </g>
    </g>
    <g id="Group_1178" data-name="Group 1178" transform="translate(8.382 28.496)">
      <g id="Group_1177" data-name="Group 1177">
        <rect id="Rectangle_61" data-name="Rectangle 61" width="6.705" height="1.676" fill="#141414"/>
      </g>
    </g>
    <g id="Group_1180" data-name="Group 1180" transform="translate(10.058 3.352)">
      <g id="Group_1179" data-name="Group 1179">
        <path id="Path_611" data-name="Path 611" d="M130.515,42.667a2.514,2.514,0,1,0,2.514,2.514A2.514,2.514,0,0,0,130.515,42.667Zm0,3.352a.838.838,0,1,1,.838-.838A.838.838,0,0,1,130.515,46.019Z" transform="translate(-128.001 -42.667)" fill="#141414"/>
      </g>
    </g>
    <g id="Group_1182" data-name="Group 1182" transform="translate(15.925 9.219)">
      <g id="Group_1181" data-name="Group 1181">
        <path id="Path_612" data-name="Path 612" d="M205.182,117.333a2.514,2.514,0,1,0,2.514,2.514A2.514,2.514,0,0,0,205.182,117.333Zm0,3.352a.838.838,0,1,1,.838-.838A.838.838,0,0,1,205.182,120.685Z" transform="translate(-202.668 -117.333)" fill="#141414"/>
      </g>
    </g>
    <g id="Group_1184" data-name="Group 1184" transform="translate(6.951 6.113)">
      <g id="Group_1183" data-name="Group 1183" transform="translate(0 0)">
        <rect id="Rectangle_62" data-name="Rectangle 62" width="5.926" height="1.676" transform="translate(0 4.19) rotate(-45)" fill="#141414"/>
      </g>
    </g>
    <g id="Group_1186" data-name="Group 1186" transform="translate(12.815 6.115)">
      <g id="Group_1185" data-name="Group 1185" transform="translate(0 0)">
        <rect id="Rectangle_63" data-name="Rectangle 63" width="1.676" height="5.926" transform="translate(0 1.185) rotate(-45)" fill="#141414"/>
      </g>
    </g>
    <g id="Group_1188" data-name="Group 1188" transform="translate(21.792 3.352)">
      <g id="Group_1187" data-name="Group 1187">
        <path id="Path_613" data-name="Path 613" d="M279.848,42.667a2.514,2.514,0,1,0,2.514,2.514A2.514,2.514,0,0,0,279.848,42.667Zm0,3.352a.838.838,0,1,1,.838-.838A.838.838,0,0,1,279.848,46.019Z" transform="translate(-277.334 -42.667)" fill="#141414"/>
      </g>
    </g>
    <g id="Group_1190" data-name="Group 1190" transform="translate(18.685 6.116)">
      <g id="Group_1189" data-name="Group 1189" transform="translate(0 0)">
        <rect id="Rectangle_64" data-name="Rectangle 64" width="5.926" height="1.676" transform="translate(0 4.19) rotate(-45)" fill="#141414"/>
      </g>
    </g>
  </g>
</svg>
