<svg xmlns="http://www.w3.org/2000/svg" width="40.392" height="40.861" viewBox="0 0 40.392 40.861">
  <g id="search" transform="translate(0)">
    <path id="Path_626" data-name="Path 626" d="M40.383,8.81a.653.653,0,0,0-.035-.175c-.007-.022-.013-.043-.022-.064a.684.684,0,0,0-.136-.2L32.017.2a.67.67,0,0,0-.2-.136c-.02-.009-.041-.015-.062-.022a.67.67,0,0,0-.179-.036c-.012,0-.024-.005-.038-.005H11.108A3.409,3.409,0,0,0,7.7,3.4V8.417a12.914,12.914,0,0,0,0,23.631v5.407a3.409,3.409,0,0,0,3.405,3.405H36.987a3.409,3.409,0,0,0,3.405-3.405V8.853c0-.015-.007-.028-.009-.043Zm-2.316-.638H32.9a.681.681,0,0,1-.681-.681V2.325ZM1.377,20.233A11.562,11.562,0,0,1,12.954,8.656q.581,0,1.15.056A11.546,11.546,0,0,1,24.388,18.5a11.69,11.69,0,0,1,.142,1.734,11.577,11.577,0,0,1-23.154,0Zm19.487,10.23c.093-.072.185-.144.276-.218a12.744,12.744,0,0,0,.965-.862,12.8,12.8,0,0,0,.862-.964c.074-.091.146-.184.218-.277s.172-.21.251-.32l5.806,5.813a2.028,2.028,0,0,1,0,2.881,2.074,2.074,0,0,1-2.883,0l-5.813-5.8c.11-.08.212-.168.32-.251ZM36.987,39.5H11.108a2.043,2.043,0,0,1-2.043-2.043V32.58c.042.014.086.023.129.036.109.033.219.06.33.09.255.068.511.136.771.187.127.027.255.051.383.074.259.046.521.081.784.112.117.013.233.03.351.04.377.032.757.053,1.141.053a12.854,12.854,0,0,0,6.415-1.709l6.021,6.015A3.405,3.405,0,1,0,30.2,32.67l-6.019-6.022a12.85,12.85,0,0,0,1.709-6.414q0-.647-.063-1.284A12.936,12.936,0,0,0,12.954,7.294c-.383,0-.763.021-1.141.053-.118.01-.234.027-.351.04q-.393.044-.782.112-.194.034-.387.074c-.256.053-.51.116-.762.185-.113.031-.226.058-.341.092-.042.013-.085.022-.127.036V3.405a2.043,2.043,0,0,1,2.043-2.043H30.858V7.491A2.043,2.043,0,0,0,32.9,9.534H39.03V37.456A2.043,2.043,0,0,1,36.987,39.5Zm0,0" transform="translate(0 0)" fill="#141414"/>
    <path id="Path_627" data-name="Path 627" d="M154.832,48.681a.681.681,0,0,0-.681-.681H139.169a.681.681,0,1,0,0,1.362h14.982A.681.681,0,0,0,154.832,48.681Zm0,0" transform="translate(-126.699 -43.914)" fill="#141414"/>
    <path id="Path_628" data-name="Path 628" d="M323.341,192h-8.172a.681.681,0,0,0,0,1.362h8.172a.681.681,0,0,0,0-1.362Zm0,0" transform="translate(-287.716 -175.656)" fill="#141414"/>
    <path id="Path_629" data-name="Path 629" d="M323.341,240h-8.172a.681.681,0,0,0,0,1.362h8.172a.681.681,0,0,0,0-1.362Zm0,0" transform="translate(-287.716 -219.57)" fill="#141414"/>
    <path id="Path_630" data-name="Path 630" d="M316.7,288.681a.681.681,0,0,0-.681-.681h-8.853a.681.681,0,1,0,0,1.362h8.853A.681.681,0,0,0,316.7,288.681Zm0,0" transform="translate(-280.398 -263.484)" fill="#141414"/>
    <path id="Path_631" data-name="Path 631" d="M345.979,336.681A.681.681,0,0,0,345.3,336h-6.129a.681.681,0,1,0,0,1.362H345.3A.681.681,0,0,0,345.979,336.681Zm0,0" transform="translate(-309.673 -307.398)" fill="#141414"/>
    <path id="Path_632" data-name="Path 632" d="M257.3,96.681a.681.681,0,0,0-.681-.681h-5.448a.681.681,0,0,0,0,1.362h5.448A.681.681,0,0,0,257.3,96.681Zm0,0" transform="translate(-229.165 -87.828)" fill="#141414"/>
    <path id="Path_633" data-name="Path 633" d="M302.065,144.681a.681.681,0,0,0-.681-.681H291.169a.681.681,0,0,0,0,1.362h10.215A.681.681,0,0,0,302.065,144.681Zm0,0" transform="translate(-265.759 -131.742)" fill="#141414"/>
    <path id="Path_634" data-name="Path 634" d="M115.169,185.362h4.767a.681.681,0,1,0,0-1.362h-4.767a.681.681,0,0,0,0,1.362Zm0,0" transform="translate(-104.742 -168.337)" fill="#141414"/>
    <path id="Path_635" data-name="Path 635" d="M94.065,232.681a.681.681,0,0,0-.681-.681H83.169a.681.681,0,0,0,0,1.362H93.384A.681.681,0,0,0,94.065,232.681Zm0,0" transform="translate(-75.466 -212.251)" fill="#141414"/>
    <path id="Path_636" data-name="Path 636" d="M119.936,280h-4.767a.681.681,0,1,0,0,1.362h4.767a.681.681,0,1,0,0-1.362Zm0,0" transform="translate(-104.742 -256.165)" fill="#141414"/>
    <path id="Path_637" data-name="Path 637" d="M47.216,136.911a9.987,9.987,0,0,0,3.973-3.854c.054-.094.112-.185.163-.281.026-.049.047-.1.072-.149.1-.2.2-.4.293-.6s.16-.4.232-.6c.021-.058.048-.114.068-.173a10.22,10.22,0,1,0-4.8,5.659ZM38.125,135.7a8.786,8.786,0,0,1-2.016-1.511A8.967,8.967,0,0,1,35,132.835q-.241-.361-.445-.742a8.854,8.854,0,1,1,15.6.039v.006a8.7,8.7,0,0,1-3.577,3.575,8.828,8.828,0,0,1-8.451-.013Zm0,0" transform="translate(-29.415 -107.696)" fill="#141414"/>
    <path id="Path_638" data-name="Path 638" d="M383.255,384a.681.681,0,0,0-.681.681v2.724a.681.681,0,0,1-.681.681h-2.724a.681.681,0,0,0,0,1.362h2.724a2.043,2.043,0,0,0,2.043-2.043v-2.724A.681.681,0,0,0,383.255,384Zm0,0" transform="translate(-346.268 -351.311)" fill="#141414"/>
  </g>
</svg>
