<svg xmlns="http://www.w3.org/2000/svg" width="40" height="40" viewBox="0 0 40 40">
  <g id="settings_2_" data-name="settings (2)" transform="translate(0)">
    <path id="Path_10" data-name="Path 10" d="M21.255,40h-2.51a3.687,3.687,0,0,1-3.682-3.682v-.849a16.148,16.148,0,0,1-2.508-1.041l-.6.6a3.682,3.682,0,0,1-5.208,0L4.97,33.255a3.682,3.682,0,0,1,0-5.208l.6-.6a16.149,16.149,0,0,1-1.041-2.508H3.682A3.687,3.687,0,0,1,0,21.255v-2.51a3.687,3.687,0,0,1,3.682-3.682h.849a16.153,16.153,0,0,1,1.041-2.508l-.6-.6a3.682,3.682,0,0,1,0-5.208L6.745,4.971a3.682,3.682,0,0,1,5.208,0l.6.6a16.164,16.164,0,0,1,2.508-1.041V3.682A3.686,3.686,0,0,1,18.745,0h2.51a3.686,3.686,0,0,1,3.682,3.682v.849a16.148,16.148,0,0,1,2.508,1.041l.6-.6a3.682,3.682,0,0,1,5.208,0l1.774,1.774a3.682,3.682,0,0,1,0,5.208l-.6.6a16.15,16.15,0,0,1,1.041,2.508h.849A3.687,3.687,0,0,1,40,18.745v2.51a3.687,3.687,0,0,1-3.682,3.682h-.849a16.153,16.153,0,0,1-1.041,2.508l.6.6a3.682,3.682,0,0,1,0,5.208L33.255,35.03a3.682,3.682,0,0,1-5.208,0l-.6-.6a16.163,16.163,0,0,1-2.508,1.041v.849A3.686,3.686,0,0,1,21.255,40Zm-8.309-8.034a13.813,13.813,0,0,0,3.581,1.486,1.172,1.172,0,0,1,.879,1.135v1.73a1.34,1.34,0,0,0,1.339,1.339h2.51a1.34,1.34,0,0,0,1.339-1.339v-1.73a1.172,1.172,0,0,1,.879-1.135,13.813,13.813,0,0,0,3.581-1.486,1.172,1.172,0,0,1,1.425.18L29.7,33.372a1.338,1.338,0,0,0,1.892,0L33.372,31.6a1.338,1.338,0,0,0,0-1.893l-1.226-1.226a1.172,1.172,0,0,1-.18-1.425,13.811,13.811,0,0,0,1.486-3.581,1.172,1.172,0,0,1,1.135-.879h1.73a1.34,1.34,0,0,0,1.339-1.339v-2.51a1.34,1.34,0,0,0-1.339-1.339h-1.73a1.172,1.172,0,0,1-1.135-.879,13.814,13.814,0,0,0-1.486-3.581,1.172,1.172,0,0,1,.18-1.425L33.372,10.3a1.338,1.338,0,0,0,0-1.893L31.6,6.628a1.338,1.338,0,0,0-1.893,0L28.479,7.854a1.172,1.172,0,0,1-1.425.18,13.813,13.813,0,0,0-3.581-1.486,1.172,1.172,0,0,1-.879-1.135V3.682a1.34,1.34,0,0,0-1.339-1.339h-2.51a1.34,1.34,0,0,0-1.339,1.339v1.73a1.172,1.172,0,0,1-.879,1.135,13.813,13.813,0,0,0-3.581,1.486,1.172,1.172,0,0,1-1.425-.18L10.3,6.628a1.338,1.338,0,0,0-1.892,0L6.628,8.4a1.338,1.338,0,0,0,0,1.893l1.226,1.226a1.172,1.172,0,0,1,.18,1.425,13.811,13.811,0,0,0-1.486,3.581,1.172,1.172,0,0,1-1.135.879H3.682a1.34,1.34,0,0,0-1.339,1.339v2.51a1.34,1.34,0,0,0,1.339,1.339h1.73a1.172,1.172,0,0,1,1.135.879,13.814,13.814,0,0,0,1.486,3.581,1.172,1.172,0,0,1-.18,1.425L6.628,29.7a1.338,1.338,0,0,0,0,1.893L8.4,33.372a1.338,1.338,0,0,0,1.893,0l1.226-1.226a1.177,1.177,0,0,1,1.425-.18Z" transform="translate(0 0)" fill="#121212"/>
    <path id="Path_11" data-name="Path 11" d="M156.331,168.061a11.731,11.731,0,1,1,11.731-11.731A11.744,11.744,0,0,1,156.331,168.061Zm0-20.3a8.572,8.572,0,1,0,8.572,8.572A8.581,8.581,0,0,0,156.331,147.759Z" transform="translate(-136.331 -136.331)" fill="#121212"/>
  </g>
</svg>
