<svg xmlns="http://www.w3.org/2000/svg" width="76.598" height="76.598" viewBox="0 0 76.598 76.598">
  <g id="share_1_" data-name="share (1)" transform="translate(-0.004 0)">
    <path id="Path_67" data-name="Path 67" d="M67.825,149.171H8.78A8.784,8.784,0,0,1,0,140.395V94.116A8.783,8.783,0,0,1,8.78,85.34H19.951a2.394,2.394,0,0,1,0,4.787H8.78a3.994,3.994,0,0,0-3.989,3.989v46.278a4,4,0,0,0,3.989,3.989H67.825a4,4,0,0,0,3.99-3.989V113.266a2.394,2.394,0,1,1,4.787,0v27.129A8.784,8.784,0,0,1,67.825,149.171Zm0,0" transform="translate(0 -72.572)" fill="#121212"/>
    <path id="Path_68" data-name="Path 68" d="M130.394,51.025a2.108,2.108,0,0,1-.527-.064A2.361,2.361,0,0,1,128,48.673V43.886a31.154,31.154,0,0,1,31.118-31.118h.8V2.395a2.393,2.393,0,0,1,4.117-1.66l20.745,21.543a2.39,2.39,0,0,1,0,3.319L164.036,47.141a2.392,2.392,0,0,1-4.117-1.66V35.109h-3.792a26.183,26.183,0,0,0-23.551,14.557,2.465,2.465,0,0,1-2.183,1.36Zm28.728-33.47A26.374,26.374,0,0,0,132.992,40.6a30.945,30.945,0,0,1,23.136-10.277h6.185a2.4,2.4,0,0,1,2.394,2.394v6.83l15.029-15.607L164.706,8.331v6.83a2.4,2.4,0,0,1-2.394,2.394Zm0,0" transform="translate(-108.85 0)" fill="#121212"/>
  </g>
</svg>
