<svg xmlns="http://www.w3.org/2000/svg" width="39.999" height="40" viewBox="0 0 39.999 40">
  <g id="share_1_" data-name="share (1)" transform="translate(-0.004 0)">
    <path id="Path_67" data-name="Path 67" d="M35.42,118.672H4.587A4.587,4.587,0,0,1,0,114.089V89.923A4.587,4.587,0,0,1,4.587,85.34H10.42a1.25,1.25,0,0,1,0,2.5H4.587A2.086,2.086,0,0,0,2.5,89.923v24.166a2.086,2.086,0,0,0,2.083,2.083H35.42a2.086,2.086,0,0,0,2.083-2.083V99.923a1.25,1.25,0,0,1,2.5,0v14.167A4.587,4.587,0,0,1,35.42,118.672Zm0,0" transform="translate(0 -78.672)" fill="#121212"/>
    <path id="Path_68" data-name="Path 68" d="M129.252,26.645a1.1,1.1,0,0,1-.275-.034A1.233,1.233,0,0,1,128,25.417v-2.5a16.268,16.268,0,0,1,16.25-16.25h.417V1.251a1.249,1.249,0,0,1,2.15-.867l10.833,11.25a1.248,1.248,0,0,1,0,1.733L146.82,24.617a1.249,1.249,0,0,1-2.15-.867V18.334h-1.98a13.672,13.672,0,0,0-12.3,7.6,1.287,1.287,0,0,1-1.14.71Zm15-17.478A13.772,13.772,0,0,0,130.608,21.2a16.159,16.159,0,0,1,12.081-5.366h3.23a1.25,1.25,0,0,1,1.25,1.25V20.65l7.848-8.15-7.848-8.15V7.917a1.25,1.25,0,0,1-1.25,1.25Zm0,0" transform="translate(-118)" fill="#121212"/>
  </g>
</svg>
