<svg id="sun" xmlns="http://www.w3.org/2000/svg" width="36.4" height="36.4" viewBox="0 0 36.4 36.4">
  <g id="Group_283" data-name="Group 283" transform="translate(9.052 9.052)">
    <g id="Group_282" data-name="Group 282">
      <path id="Path_383" data-name="Path 383" d="M90.8,77.9a9.179,9.179,0,0,0-6.452-2.7A8.98,8.98,0,0,0,77.9,77.9a9.148,9.148,0,0,0,6.452,15.6A8.98,8.98,0,0,0,90.8,90.8a9.179,9.179,0,0,0,2.7-6.452A8.98,8.98,0,0,0,90.8,77.9Zm-1.733,11.17a6.743,6.743,0,1,1,1.926-4.718A6.66,6.66,0,0,1,89.067,89.067Z" transform="translate(-75.2 -75.2)" fill="#141414"/>
    </g>
  </g>
  <g id="Group_285" data-name="Group 285" transform="translate(30.189 16.948)">
    <g id="Group_284" data-name="Group 284">
      <path id="Path_384" data-name="Path 384" d="M255.759,140.8h-3.707a1.252,1.252,0,1,0,0,2.5h3.707a1.252,1.252,0,1,0,0-2.5Z" transform="translate(-250.8 -140.8)" fill="#141414"/>
    </g>
  </g>
  <g id="Group_287" data-name="Group 287" transform="translate(16.948 30.189)">
    <g id="Group_286" data-name="Group 286">
      <path id="Path_385" data-name="Path 385" d="M142.052,250.8a1.275,1.275,0,0,0-1.252,1.252v3.707a1.252,1.252,0,0,0,2.5,0v-3.707A1.275,1.275,0,0,0,142.052,250.8Z" transform="translate(-140.8 -250.8)" fill="#141414"/>
    </g>
  </g>
  <g id="Group_289" data-name="Group 289" transform="translate(26.313 26.313)">
    <g id="Group_288" data-name="Group 288">
      <path id="Path_386" data-name="Path 386" d="M223.343,221.609l-2.648-2.648a1.226,1.226,0,0,0-1.733,1.733l2.648,2.648a1.226,1.226,0,1,0,1.733-1.733Z" transform="translate(-218.6 -218.6)" fill="#141414"/>
    </g>
  </g>
  <g id="Group_291" data-name="Group 291" transform="translate(16.948)">
    <g id="Group_290" data-name="Group 290">
      <path id="Path_387" data-name="Path 387" d="M142.052,0A1.275,1.275,0,0,0,140.8,1.252V4.959a1.252,1.252,0,0,0,2.5,0V1.252A1.275,1.275,0,0,0,142.052,0Z" transform="translate(-140.8)" fill="#141414"/>
    </g>
  </g>
  <g id="Group_293" data-name="Group 293" transform="translate(26.361 4.983)">
    <g id="Group_292" data-name="Group 292">
      <path id="Path_388" data-name="Path 388" d="M223.743,41.761a1.221,1.221,0,0,0-1.733,0l-2.648,2.648a1.226,1.226,0,0,0,1.733,1.733l2.648-2.648A1.221,1.221,0,0,0,223.743,41.761Z" transform="translate(-219 -41.4)" fill="#141414"/>
    </g>
  </g>
  <g id="Group_295" data-name="Group 295" transform="translate(0 16.948)">
    <g id="Group_294" data-name="Group 294">
      <path id="Path_389" data-name="Path 389" d="M4.959,140.8H1.252A1.275,1.275,0,0,0,0,142.052,1.243,1.243,0,0,0,1.252,143.3H4.959a1.252,1.252,0,0,0,0-2.5Z" transform="translate(0 -140.8)" fill="#141414"/>
    </g>
  </g>
  <g id="Group_297" data-name="Group 297" transform="translate(4.935 26.313)">
    <g id="Group_296" data-name="Group 296">
      <path id="Path_390" data-name="Path 390" d="M45.743,218.961a1.22,1.22,0,0,0-1.733,0l-2.648,2.648a1.226,1.226,0,1,0,1.733,1.733l2.648-2.648A1.221,1.221,0,0,0,45.743,218.961Z" transform="translate(-41 -218.6)" fill="#141414"/>
    </g>
  </g>
  <g id="Group_299" data-name="Group 299" transform="translate(4.935 4.983)">
    <g id="Group_298" data-name="Group 298">
      <path id="Path_391" data-name="Path 391" d="M45.743,44.409l-2.648-2.648a1.226,1.226,0,0,0-1.733,1.733l2.648,2.648a1.226,1.226,0,1,0,1.733-1.733Z" transform="translate(-41 -41.4)" fill="#141414"/>
    </g>
  </g>
</svg>
