<svg xmlns="http://www.w3.org/2000/svg" width="29" height="19" viewBox="0 0 29 19"><defs><clipPath id="clip-path"><path fill="rgba(0,0,0,0.67)" d="M0 0h29v19H0z" data-name="Path 33819"></path></clipPath></defs><g clip-path="url(#clip-path)"><g fill-rule="evenodd" data-name="Group 13463"><path fill="#bd3d44" d="M0 0h41.325v1.462H0zm0 2.923h41.325v1.462H0zm0 2.923h41.325v1.462H0zm0 2.923h41.325v1.462H0zm0 2.923h41.325v1.462H0zm0 2.923h41.325v1.462H0zm0 2.923h41.325V19H0z" data-name="Path 33813"></path><path fill="#fff" d="M0 36.923h41.325v1.462H0zm0 2.923h41.325v1.462H0zm0 2.924h41.325v1.462H0zm0 2.923h41.325v1.462H0zm0 2.923h41.325v1.462H0zm0 2.923h41.325V53H0z" data-name="Path 33814" transform="translate(0 -35.462)"></path></g><path fill="#192f5d" fill-rule="evenodd" d="M0 0h16.53v10.231H0z" data-name="Path 33815"></path><g data-name="Group 13466" transform="translate(.74 .438)"><path fill="#fff" fill-rule="evenodd" d="M16.977 11.063l.15.4h.487l-.394.25.15.4-.394-.25-.394.25.15-.4-.394-.25h.487zm2.755 0l.15.4h.487l-.394.25.15.4-.394-.25-.394.25.15-.4-.394-.25h.487zm2.755 0l.15.4h.487l-.394.25.15.4-.394-.25-.394.25.15-.4-.394-.25h.487zm2.755 0l.15.4h.487l-.394.25.15.4-.394-.25-.394.25.15-.4-.394-.25h.487zm2.755 0l.15.4h.487l-.394.25.15.4-.39-.242-.394.25.15-.4-.394-.25h.487zm2.755 0l.15.4h.487l-.394.25.15.4-.394-.25-.394.25.15-.4-.394-.25h.487zm-12.4 1.023l.15.4h.487l-.394.25.15.4-.394-.25-.394.25.15-.4-.394-.25h.487zm2.755 0l.15.4h.487l-.394.25.15.4-.394-.25-.394.25.15-.4-.394-.25h.487zm2.755 0l.15.4h.488l-.394.25.15.4-.394-.25-.394.25.15-.4-.394-.25h.487zm2.755 0l.15.4h.487l-.394.25.15.4-.394-.25-.394.25.151-.4-.394-.25h.487zm2.755 0l.15.4h.487l-.394.25.15.4-.394-.25-.394.25.15-.4-.394-.25h.487zm-12.4 1.023l.15.4h.487l-.394.25.15.4-.394-.25-.394.25.15-.4-.394-.25h.487zm2.755 0l.15.4h.487l-.394.25.15.4-.394-.25-.394.25.15-.4-.394-.25h.487zm2.755 0l.15.4h.487l-.394.25.15.4-.394-.25-.394.25.15-.4-.394-.25h.487zm2.755 0l.15.4h.487l-.394.25.15.4-.394-.25-.394.25.15-.4-.394-.25h.487zm2.755 0l.15.4h.487l-.394.25.15.4-.385-.242-.394.25.15-.4-.394-.25h.487zm2.755 0l.15.4h.487l-.394.25.15.4-.394-.25-.394.25.15-.4-.394-.25h.492zm-12.4 1.023l.15.4h.487l-.394.25.15.4-.394-.25-.394.25.15-.4-.394-.25h.492zm2.755 0l.15.4h.487l-.394.25.15.4-.394-.25-.394.25.15-.4-.394-.25h.487zm2.755 0l.15.4h.493l-.394.25.15.4-.394-.25-.394.25.15-.4-.394-.25h.487zm2.755 0l.15.4h.487l-.394.25.15.4-.394-.25-.394.25.15-.4-.394-.25h.487zm2.755 0l.15.4h.487l-.394.25.15.4-.394-.25-.394.25.15-.4-.394-.25h.487zm-12.4 1.023l.15.4h.487l-.394.25.15.4-.394-.25-.394.25.15-.4-.394-.25h.487zm2.755 0l.15.4h.487l-.394.25.15.4-.394-.25-.394.25.15-.4-.394-.25h.487zm2.755 0l.15.4h.487l-.394.25.15.4-.394-.25-.394.25.15-.4-.394-.25h.487zm2.755 0l.15.4h.487l-.394.25.15.4-.394-.25-.394.25.15-.4-.394-.25h.487zm2.755 0l.15.4h.487l-.394.25.15.4-.38-.241-.394.25.15-.4-.394-.25h.487zm2.755 0l.15.4h.487l-.394.25.15.4-.394-.25-.394.25.15-.4-.394-.25h.497zm-12.4 1.023l.15.4h.487l-.394.25.15.4-.394-.25-.394.25.15-.4-.394-.25h.497zm2.755 0l.15.4h.487l-.394.25.15.4-.394-.25-.394.25.15-.4-.394-.25h.487zm2.755 0l.15.4h.498l-.394.25.15.4-.394-.25-.394.25.15-.4-.394-.25h.487zm2.755 0l.15.4h.487l-.394.25.15.4-.394-.25-.394.25.15-.4-.394-.25h.487zm2.755 0l.15.4h.487l-.394.25.15.4-.394-.25-.394.25.15-.4-.394-.25h.487z" data-name="Path 33816" transform="translate(-16.34 -11.063)"></path><g data-name="Group 13464" transform="translate(0 6.139)"><path fill="#fff" fill-rule="evenodd" d="M16.977 166.141l.15.4h.487l-.394.25.15.4-.394-.25-.394.25.15-.4-.394-.25h.487zm2.755 0l.15.4h.487l-.394.25.15.4-.394-.25-.394.25.15-.4-.394-.25h.487zm2.755 0l.15.4h.487l-.394.25.15.4-.394-.25-.394.25.15-.4-.394-.25h.487zm2.755 0l.15.4h.487l-.394.25.15.4-.394-.25-.394.25.15-.4-.394-.25h.487zm2.755 0l.15.4h.487l-.394.25.15.4-.39-.241-.394.25.15-.4-.394-.25h.487zm2.755 0l.15.4h.487L31 166.8l.15.4-.394-.25-.394.25.15-.4-.394-.25h.482zm-12.4 1.023l.15.4h.487l-.394.25.15.4-.394-.25-.394.25.15-.4-.394-.25h.487zm2.755 0l.15.4h.487l-.394.25.15.4-.394-.25-.394.25.15-.4-.394-.25h.487zm2.755 0l.15.4h.488l-.394.25.15.4-.394-.25-.394.25.15-.4-.394-.25h.487zm2.755 0l.15.4h.487l-.394.25.15.4-.394-.25-.394.25.15-.4-.394-.25h.487zm2.755 0l.15.4h.487l-.394.25.15.4-.394-.25-.394.25.15-.4-.394-.25h.487z" data-name="Path 33817" transform="translate(-16.34 -166.141)"></path></g><g data-name="Group 13465" transform="translate(0 8.185)"><path fill="#fff" fill-rule="evenodd" d="M16.977 217.834l.15.4h.487l-.394.25.15.4-.394-.25-.394.25.15-.4-.394-.25h.487zm2.755 0l.15.4h.487l-.394.25.15.4-.394-.25-.394.25.15-.4-.394-.25h.487zm2.755 0l.15.4h.487l-.394.25.15.4-.394-.25-.394.25.15-.4-.394-.25h.487zm2.755 0l.15.4h.487l-.394.25.15.4-.394-.25-.394.25.15-.4-.394-.25h.487zm2.755 0l.15.4h.487l-.394.25.15.4-.394-.25-.394.25.15-.4-.394-.25h.487zm2.755 0l.15.4h.487l-.394.25.15.4-.394-.25-.394.25.15-.4-.394-.25h.487z" data-name="Path 33818" transform="translate(-16.34 -217.834)"></path></g></g></g></svg>