<svg id="Group_1225" data-name="Group 1225" xmlns="http://www.w3.org/2000/svg" width="254.603" height="55.604" viewBox="0 0 254.603 55.604">
  <g id="Group_1222" data-name="Group 1222" transform="translate(7.667 7.72)">
    <path id="Path_668" data-name="Path 668" d="M1089.091,188.089a176.492,176.492,0,0,1-69.122-13.954,177.278,177.278,0,0,1-50.162-32.073,1.067,1.067,0,1,1,1.435-1.58,175.078,175.078,0,0,0,49.558,31.685,176.021,176.021,0,0,0,136.583,0,175.088,175.088,0,0,0,49.549-31.676,1.067,1.067,0,1,1,1.435,1.58,177.253,177.253,0,0,1-50.154,32.065A176.482,176.482,0,0,1,1089.091,188.089Z" transform="translate(-969.457 -140.206)" fill="#fff"/>
  </g>
  <g id="Group_1223" data-name="Group 1223" transform="translate(236.426)">
    <path id="Path_669" data-name="Path 669" d="M1079.625,139.286a8.026,8.026,0,1,1-.307,11.346A8.029,8.029,0,0,1,1079.625,139.286Z" transform="translate(-1076.057 -136.024)" fill="#fff"/>
    <path id="Path_670" data-name="Path 670" d="M1079.457,139.076a9.092,9.092,0,1,0,12.855.348,9.1,9.1,0,0,0-12.855-.348Zm11.038,11.655a6.96,6.96,0,1,1,.267-9.839,6.966,6.966,0,0,1-.267,9.839C1087.708,153.37,1093.281,148.091,1090.5,150.731Z" transform="translate(-1076.621 -136.589)" fill="#8b0ff3"/>
  </g>
  <g id="Group_1224" data-name="Group 1224">
    <path id="Path_671" data-name="Path 671" d="M979.909,139.286a8.026,8.026,0,1,0,.307,11.346A8.029,8.029,0,0,0,979.909,139.286Z" transform="translate(-965.299 -136.024)" fill="#fff"/>
    <path id="Path_672" data-name="Path 672" d="M981.207,139.076a9.092,9.092,0,1,1-12.855.348,9.1,9.1,0,0,1,12.855-.348Zm-11.038,11.655a6.96,6.96,0,1,0-.267-9.839,6.966,6.966,0,0,0,.267,9.839C972.956,153.37,967.383,148.091,970.168,150.731Z" transform="translate(-965.865 -136.589)" fill="#8b0ff3"/>
  </g>
</svg>
