<svg id="Group_1221" data-name="Group 1221" xmlns="http://www.w3.org/2000/svg" width="254.603" height="55.602" viewBox="0 0 254.603 55.602">
  <g id="Group_1218" data-name="Group 1218" transform="translate(7.675 0)">
    <path id="Path_663" data-name="Path 663" d="M1207.656,44.139a1.065,1.065,0,0,1-.717-.275,175.265,175.265,0,0,0-235.693-.006,1.068,1.068,0,1,1-1.434-1.582,177.4,177.4,0,0,1,238.561.006,1.067,1.067,0,0,1-.717,1.857Z" transform="translate(-969.461 3.743)" fill="#fff"/>
  </g>
  <g id="Group_1219" data-name="Group 1219" transform="translate(0 37.424)">
    <path id="Path_664" data-name="Path 664" d="M979.909,28.139a8.026,8.026,0,1,1,.307-11.346A8.027,8.027,0,0,1,979.909,28.139Z" transform="translate(-965.299 -13.224)" fill="#fff"/>
    <path id="Path_665" data-name="Path 665" d="M981.207,29.479a9.092,9.092,0,1,0-12.855-.348,9.1,9.1,0,0,0,12.855.348C984.846,26.031,977.567,32.928,981.207,29.479ZM970.168,17.826a6.959,6.959,0,1,1-.267,9.836,6.968,6.968,0,0,1,.267-9.836C972.956,15.187,967.383,20.464,970.168,17.826Z" transform="translate(-965.865 -13.789)" fill="#8b0ff3"/>
  </g>
  <g id="Group_1220" data-name="Group 1220" transform="translate(236.426 37.424)">
    <path id="Path_666" data-name="Path 666" d="M1079.625,28.139a8.026,8.026,0,1,0-.307-11.346A8.027,8.027,0,0,0,1079.625,28.139Z" transform="translate(-1076.057 -13.224)" fill="#fff"/>
    <path id="Path_667" data-name="Path 667" d="M1079.457,29.479a9.092,9.092,0,1,1,12.855-.348,9.1,9.1,0,0,1-12.855.348C1075.818,26.031,1083.1,32.928,1079.457,29.479ZM1090.5,17.826a6.959,6.959,0,1,0,.267,9.836,6.968,6.968,0,0,0-.267-9.836C1087.708,15.187,1093.281,20.464,1090.5,17.826Z" transform="translate(-1076.621 -13.789)" fill="#8b0ff3"/>
  </g>
</svg>
